<svg width="20" height="14" viewBox="0 0 20 14" fill="none" xmlns="http://www.w3.org/2000/svg">
<path d="M19.75 6H19V3.75C19 2.78437 18.2156 2 17.25 2H16.25C16.1656 2 16.0812 2.0125 16 2.025V1.75C16 0.784375 15.2156 0 14.25 0H13.25C12.2844 0 11.5 0.784375 11.5 1.75V6H8.5V1.75C8.5 0.784375 7.71562 0 6.75 0H5.75C4.78438 0 4 0.784375 4 1.75V2.025C3.91875 2.0125 3.83437 2 3.75 2H2.75C1.78437 2 1 2.78437 1 3.75V6H0.25C0.1125 6 0 6.1125 0 6.25V7.75C0 7.8875 0.1125 8 0.25 8H1V10.25C1 11.2156 1.78437 12 2.75 12H3.75C3.83437 12 3.91875 11.9875 4 11.975V12.25C4 13.2156 4.78438 14 5.75 14H6.75C7.71562 14 8.5 13.2156 8.5 12.25V8H11.5V12.25C11.5 13.2156 12.2844 14 13.25 14H14.25C15.2156 14 16 13.2156 16 12.25V11.975C16.0812 11.9875 16.1656 12 16.25 12H17.25C18.2156 12 19 11.2156 19 10.25V8H19.75C19.8875 8 20 7.8875 20 7.75V6.25C20 6.1125 19.8875 6 19.75 6ZM3.75 10.5H2.75C2.6125 10.5 2.5 10.3875 2.5 10.25V3.75C2.5 3.6125 2.6125 3.5 2.75 3.5H3.75C3.8875 3.5 4 3.6125 4 3.75V10.25C4 10.3875 3.8875 10.5 3.75 10.5ZM7 12.25C7 12.3875 6.8875 12.5 6.75 12.5H5.75C5.6125 12.5 5.5 12.3875 5.5 12.25V1.75C5.5 1.6125 5.6125 1.5 5.75 1.5H6.75C6.8875 1.5 7 1.6125 7 1.75V12.25ZM14.5 12.25C14.5 12.3875 14.3875 12.5 14.25 12.5H13.25C13.1125 12.5 13 12.3875 13 12.25V1.75C13 1.6125 13.1125 1.5 13.25 1.5H14.25C14.3875 1.5 14.5 1.6125 14.5 1.75V12.25ZM17.5 10.25C17.5 10.3875 17.3875 10.5 17.25 10.5H16.25C16.1125 10.5 16 10.3875 16 10.25V3.75C16 3.6125 16.1125 3.5 16.25 3.5H17.25C17.3875 3.5 17.5 3.6125 17.5 3.75V10.25Z" fill="#007BFB"/>
</svg>
