<svg width="320" height="271" viewBox="0 0 320 271" fill="none" xmlns="http://www.w3.org/2000/svg">
<mask id="mask0" mask-type="alpha" maskUnits="userSpaceOnUse" x="-96" y="-192" width="636" height="463">
<path d="M539.142 166.154L-96 270.629V-192H539.142V166.154Z" fill="#F0F8FF"/>
</mask>
<g mask="url(#mask0)">
<path d="M539.142 166.154L-96 270.629V-196.5H539.142V166.154Z" fill="#FFF5F5"/>
<path d="M352.855 162.5L352.947 162.737L353 162.974L352.974 163.211L352.829 163.448L352.987 163.685L352.908 163.922L352.789 164.159L352.934 164.396L352.868 164.633L352.882 164.87L352.829 165.107V165.344L352.684 165.568L352.737 165.818L352.697 166.041L352.789 166.292L352.71 166.515L352.645 166.752L352.724 167.003L352.684 167.226L352.842 167.476L352.592 167.7L352.658 167.937L352.605 168.174L352.526 168.398L352.618 168.648L352.684 168.898L352.526 169.122L352.605 169.359L352.645 169.609L352.552 169.833L352.46 170.057L352.394 170.294L352.381 170.531L352.342 170.768L352.408 171.005L352.25 171.229L352.394 171.492L352.329 171.716L352.236 171.94L352.263 172.19L352.315 172.427L352.052 172.637L352.065 172.874L351.96 173.098L351.973 173.335L352.092 173.598L352.039 173.835V174.072L352.013 174.309L351.894 174.52L351.907 174.77L351.855 175.007L351.868 175.244L351.657 175.441L351.539 175.665L351.697 175.942L351.644 176.166L351.46 176.376L351.394 176.6L351.407 176.837L351.473 177.1L351.196 177.285L351.236 177.535L351.249 177.772L351.275 178.022L351.21 178.259L351.183 178.496L350.933 178.68L350.854 178.904L350.894 179.154L350.88 179.391L350.854 179.628L350.683 179.839L350.578 180.049L350.551 180.286L350.525 180.523L350.459 180.76L350.525 181.024L350.485 181.261L350.314 181.458V181.695L350.248 181.932L350.117 182.129L349.972 182.34L349.906 182.564L349.788 182.775L349.88 183.051V183.301L349.59 183.459L349.577 183.696V183.946L349.59 184.21L349.445 184.407L349.327 184.618L349.261 184.841L349.169 185.065L348.998 185.263L349.09 185.539L348.919 185.737L348.998 186L348.8 186.184L348.827 186.448L348.59 186.619L348.616 186.882L348.471 187.08L348.353 187.29L348.392 187.554L348.168 187.725L348.129 187.962L347.971 188.159L347.866 188.37L347.945 188.659L347.668 188.791L347.694 189.068L347.563 189.265L347.392 189.449L347.51 189.752L347.273 189.91L347.168 190.121L347.115 190.358L347.049 190.582L346.891 190.779L346.747 190.976L346.799 191.253L346.641 191.45L346.615 191.687L346.483 191.885V192.148L346.167 192.267L346.207 192.556L346.128 192.78L346.062 193.004L345.93 193.201L345.693 193.346L345.746 193.636L345.667 193.86L345.562 194.083L345.456 194.294L345.14 194.399L345.154 194.676L344.943 194.834L344.956 195.097L344.838 195.308L344.614 195.453V195.729L344.508 195.94L344.258 196.071L344.285 196.348L344.166 196.559L344.048 196.769L343.863 196.927L343.797 197.164L343.718 197.388L343.442 197.506L343.403 197.757V198.033L343.205 198.191L343.073 198.389L342.929 198.573L342.757 198.757L342.744 199.02L342.678 199.257L342.52 199.442L342.323 199.6L342.297 199.863L342.099 200.008L341.836 200.126L341.889 200.442L341.77 200.653L341.625 200.837L341.388 200.969L341.204 201.127V201.417L340.967 201.535L340.862 201.746L340.848 202.035L340.598 202.141L340.611 202.443L340.388 202.575L340.23 202.746L340.203 203.023L339.861 203.075L339.729 203.273L339.637 203.497L339.506 203.694L339.427 203.931L339.19 204.05L339.216 204.352L339.045 204.524L338.755 204.603L338.768 204.905L338.479 204.997L338.4 205.221L338.255 205.419L338.084 205.577L338.071 205.866L337.781 205.945L337.676 206.156L337.465 206.288L337.333 206.485L337.32 206.788L337.004 206.841L336.938 207.078L336.728 207.222V207.525L336.517 207.657L336.28 207.775L336.267 208.078L335.99 208.144L335.859 208.341L335.701 208.513L335.556 208.697L335.49 208.96L335.214 209.039L335.174 209.316L334.911 209.395L334.753 209.579L334.661 209.816L334.529 210.013L334.279 210.106L334.147 210.303L333.91 210.408L333.792 210.619L333.647 210.803L333.463 210.961L333.318 211.146L333.213 211.369L332.91 211.422L332.752 211.593V211.922L332.541 212.041L332.265 212.107L332.159 212.344L332.067 212.581L331.817 212.66L331.606 212.778L331.422 212.936L331.409 213.265L331.251 213.436L331.054 213.581L330.83 213.687L330.659 213.845L330.566 214.095L330.277 214.121L330.198 214.397H329.882L329.737 214.595L329.684 214.885L329.421 214.937L329.342 215.214L329.105 215.306L328.987 215.53L328.763 215.635L328.565 215.754L328.355 215.885L328.131 215.977L327.96 216.148L327.868 216.412L327.644 216.504L327.486 216.688L327.341 216.886L327.078 216.938L326.92 217.123L326.801 217.36L326.564 217.439L326.301 217.491L326.248 217.807L325.906 217.741L325.853 218.071L325.537 218.044L325.432 218.294L325.248 218.439L325.076 218.61L324.879 218.742L324.721 218.94L324.55 219.097L324.313 219.163L324.089 219.255L323.957 219.479L323.734 219.571L323.457 219.611L323.365 219.887H323.075L322.904 220.059L322.759 220.256L322.575 220.414L322.417 220.585L322.088 220.533L321.983 220.809L321.838 221.006L321.535 220.98L321.338 221.125L321.18 221.283L320.982 221.415L320.771 221.546L320.574 221.665L320.35 221.757L320.166 221.915L319.916 221.968L319.824 222.257L319.613 222.376L319.336 222.362L319.178 222.547L318.928 222.599L318.849 222.942L318.56 222.902L318.362 223.034L318.191 223.205L318.02 223.389L317.704 223.337L317.612 223.626L317.296 223.574L317.138 223.758L316.94 223.903L316.717 223.969L316.519 224.113L316.269 224.14L316.071 224.271L315.913 224.469L315.703 224.587L315.492 224.693L315.321 224.877L315.018 224.798L314.821 224.93L314.65 225.14L314.413 225.18L314.281 225.456L313.978 225.39L313.82 225.575L313.596 225.68H313.333L313.201 225.943H312.938L312.701 225.983L312.504 226.115L312.346 226.352L312.082 226.338L311.911 226.549L311.701 226.654L311.45 226.668L311.24 226.773H310.976L310.818 226.983L310.595 227.076L310.318 227.023L310.16 227.273L309.923 227.326L309.713 227.418L309.515 227.55L309.265 227.563L309.015 227.589L308.87 227.879L308.633 227.931L308.449 228.076L308.159 227.997L307.948 228.116L307.698 228.129L307.514 228.287L307.29 228.366L307.106 228.563L306.882 228.629L306.671 228.748L306.448 228.84H306.197L305.987 228.958L305.71 228.853L305.5 228.998L305.276 229.077L305.052 229.156L304.868 229.327L304.591 229.274L304.394 229.419L304.183 229.511L303.933 229.538L303.709 229.603L303.485 229.656L303.248 229.722L303.064 229.906H302.814L302.551 229.88L302.366 230.09L302.103 230.012L301.892 230.13L301.655 230.143L301.458 230.327L301.208 230.301L301.024 230.551L300.8 230.604L300.536 230.551L300.299 230.564L300.076 230.657L299.852 230.749L299.615 230.762L299.417 230.933L299.18 230.986L298.93 230.946L298.667 230.894L298.456 230.999L298.232 231.065L298.022 231.236L297.759 231.17L297.548 231.275L297.337 231.42L297.087 231.381L296.85 231.394L296.587 231.341L296.363 231.407L296.179 231.697L295.915 231.565H295.678L295.441 231.631L295.204 231.604L295.007 231.868L294.77 231.894L294.533 231.907L294.27 231.776L294.046 231.868L293.822 231.934L293.572 231.92L293.348 231.986L293.138 232.171L292.887 232.131L292.637 232.039L292.413 232.131L292.203 232.342L291.953 232.236L291.703 232.21L291.466 232.236L291.242 232.302L291.018 232.408L290.768 232.302L290.531 232.315L290.294 232.329L290.083 232.579L289.833 232.513L289.583 232.394L289.359 232.5L289.135 232.684L288.898 232.737L288.648 232.592L288.424 232.724L288.187 232.737H287.95L287.713 232.684L287.49 232.842L287.24 232.684L287.003 232.816L286.766 232.724L286.529 232.737L286.292 232.71L286.055 232.868L285.831 232.908L285.581 232.829H285.344L285.107 232.921L284.883 232.974L284.633 232.789H284.396L284.159 232.829L283.922 232.895L283.685 232.737L283.448 232.842L283.211 232.816L282.974 233L282.737 232.776H282.5L282.263 232.803L282.026 232.816L281.789 232.961L281.552 232.776L281.315 232.908L281.078 232.974L280.841 233L280.604 232.947L280.367 232.868L280.13 232.882L279.906 232.697L279.669 232.71L279.419 232.895L279.196 232.75L278.959 232.763L278.722 232.803H278.471L278.234 232.882L278.011 232.71L277.761 232.842L277.537 232.671L277.287 232.816L277.063 232.592L276.826 232.631L276.589 232.618L276.365 232.526L276.115 232.631L275.878 232.658L275.641 232.539L275.391 232.671L275.167 232.579L274.943 232.394L274.706 232.487L274.469 232.394L274.232 232.421L273.995 232.447L273.771 232.25L273.521 232.381L273.284 232.394L273.074 232.171L272.824 232.184L272.6 232.157L272.376 232.026H272.139L271.902 231.999L271.665 231.973L271.428 231.96L271.191 231.947L270.954 231.92L270.717 231.907L270.506 231.736L270.256 231.762L270.032 231.67L269.769 231.841L269.532 231.815L269.322 231.657L269.085 231.631L268.874 231.486L268.597 231.604L268.413 231.354L268.189 231.289L267.926 231.341L267.676 231.407L267.465 231.249L267.228 231.223L267.018 231.091L266.768 231.117L266.504 231.183L266.333 230.867L266.057 231.052L265.872 230.815L265.635 230.775L265.372 230.854L265.161 230.709L264.938 230.63L264.674 230.709L264.503 230.42L264.213 230.591L263.99 230.512L263.792 230.341L263.516 230.42L263.345 230.169H263.094L262.884 230.051L262.62 230.104L262.41 229.998L262.186 229.919L261.936 229.906L261.712 229.827L261.488 229.788L261.278 229.63L261.067 229.551L260.817 229.511L260.619 229.38L260.356 229.419L260.132 229.314L259.935 229.169L259.711 229.103L259.474 229.064L259.224 229.05L259.079 228.748L258.842 228.721L258.618 228.629L258.421 228.511L258.184 228.458L257.947 228.405L257.723 228.353L257.486 228.287L257.262 228.234L257.078 228.037L256.841 227.971L256.564 228.05L256.367 227.905L256.13 227.866L255.919 227.76L255.722 227.615L255.538 227.431L255.301 227.378L255.05 227.365L254.813 227.326L254.59 227.234L254.366 227.141L254.182 226.997L254.01 226.799L253.8 226.694L253.523 226.72L253.286 226.668L253.102 226.496L252.852 226.483L252.681 226.273L252.523 226.062L252.246 226.088L252.049 225.97L251.878 225.759L251.575 225.838L251.351 225.759L251.154 225.641L251.035 225.351L250.759 225.364L250.587 225.167L250.35 225.127L250.153 224.982L249.916 224.93L249.745 224.759L249.455 224.798L249.31 224.548L249.139 224.364L248.85 224.416L248.744 224.127L248.468 224.113L248.27 223.995L247.994 224.008L247.823 223.824L247.586 223.771L247.454 223.521L247.191 223.495L247.046 223.258L246.875 223.1L246.559 223.166L246.493 222.823L246.23 222.784L245.993 222.718L245.861 222.494L245.624 222.428L245.466 222.231L245.255 222.112L244.966 222.126L244.742 222.033L244.65 221.744L244.479 221.573L244.15 221.652L244.005 221.441L243.86 221.217L243.689 221.059H243.399L243.268 220.835L243.057 220.73L242.886 220.559L242.557 220.625L242.412 220.414L242.306 220.164L242.004 220.177L241.938 219.848L241.596 219.914L241.556 219.585L241.266 219.558L241.161 219.321L240.911 219.255L240.661 219.203L240.437 219.084L240.345 218.821L240.147 218.703L240.016 218.479H239.713L239.594 218.255L239.371 218.15L239.292 217.873L239.068 217.781L238.87 217.636L238.633 217.557L238.489 217.36L238.225 217.307L238.173 216.991L237.843 217.017L237.633 216.899L237.448 216.754L237.356 216.491L237.225 216.28H236.922L236.896 215.938L236.566 215.964L236.54 215.635H236.224L236.132 215.385L235.855 215.345L235.658 215.201L235.579 214.937L235.329 214.858L235.276 214.555L235.026 214.49L234.789 214.384L234.684 214.161L234.539 213.963L234.434 213.739L234.21 213.634L233.96 213.542L233.854 213.305L233.696 213.134L233.473 213.028L233.328 212.844L233.209 212.62L232.906 212.594L232.854 212.317L232.748 212.08L232.551 211.936L232.34 211.817L232.064 211.764L232.024 211.475L231.866 211.29L231.616 211.198L231.59 210.896L231.3 210.843L231.155 210.659L230.971 210.514L230.8 210.343L230.721 210.092L230.563 209.921L230.273 209.855L230.221 209.592L229.984 209.487L229.944 209.21L229.707 209.092L229.628 208.855L229.391 208.75L229.207 208.592L229.154 208.328L229.01 208.131L228.904 207.907L228.575 207.881L228.404 207.71L228.285 207.499L228.233 207.236L228.088 207.051L227.89 206.906L227.811 206.669L227.68 206.472L227.482 206.327L227.259 206.196L227.166 205.972L227.022 205.787L226.85 205.616L226.732 205.419L226.548 205.261L226.442 205.037L226.205 204.918L226.179 204.642L225.903 204.563L225.876 204.273L225.784 204.05L225.666 203.852L225.442 203.72L225.363 203.483L225.244 203.273L225.139 203.062L225.007 202.865L224.797 202.733L224.744 202.47L224.52 202.338L224.283 202.206L224.323 201.904L224.007 201.838L223.888 201.627L223.73 201.443L223.691 201.193L223.52 201.008L223.427 200.798L223.243 200.627V200.35L223.151 200.126L222.993 199.942L222.861 199.758L222.796 199.508L222.506 199.415L222.335 199.244L222.229 199.034L222.137 198.81L221.992 198.612L221.834 198.441L221.913 198.112L221.716 197.954L221.637 197.717L221.439 197.572L221.229 197.414L221.176 197.177L221.031 196.98L221.058 196.703L220.847 196.545L220.65 196.374L220.742 196.058L220.452 195.953L220.307 195.755L220.215 195.545V195.268L220.149 195.031L219.939 194.873L219.991 194.584L219.82 194.413L219.623 194.241L219.465 194.057L219.504 193.768L219.254 193.636L219.241 193.373L219.109 193.175L218.925 193.004V192.741L218.714 192.569L218.754 192.293L218.675 192.069L218.517 191.885L218.477 191.635L218.201 191.503L218.227 191.24L218.135 191.016L218.017 190.805L218.056 190.542L217.859 190.371L217.819 190.121L217.569 189.976L217.701 189.66L217.358 189.541L217.516 189.226L217.187 189.107V188.844L217.121 188.62L216.937 188.436L216.897 188.199L216.937 187.922L216.858 187.711L216.647 187.527L216.489 187.343L216.608 187.04L216.568 186.803L216.424 186.606V186.355L216.331 186.132L216.134 185.961L215.989 185.75L215.844 185.552L215.963 185.263L215.884 185.039L215.752 184.841L215.699 184.604L215.462 184.433L215.634 184.131L215.581 183.894L215.476 183.683L215.173 183.525V183.288L215.081 183.064L215.133 182.801L215.041 182.577L215.002 182.34L215.028 182.09L214.857 181.892L214.765 181.669L214.686 181.445L214.607 181.221L214.567 180.997L214.646 180.721L214.436 180.536L214.515 180.273L214.396 180.062L214.317 179.839L214.093 179.641L214.238 179.365L214.146 179.141L214.041 178.93L214.093 178.667L213.948 178.469L214.014 178.206L213.975 177.969L213.672 177.798L213.869 177.508L213.804 177.285L213.554 177.1L213.501 176.863L213.619 176.6L213.448 176.389L213.382 176.166L213.435 175.915L213.264 175.705L213.356 175.441L213.238 175.231L213.317 174.968L213.264 174.744L213.172 174.52V174.27L213.08 174.046L213.132 173.809L213.053 173.572L213.08 173.335L212.803 173.138L212.935 172.874L212.777 172.664L212.711 172.427L212.829 172.176L212.711 171.953L212.843 171.689L212.658 171.479L212.606 171.242L212.566 171.018L212.579 170.781L212.619 170.531L212.474 170.307L212.421 170.083L212.527 169.833L212.461 169.596L212.382 169.372L212.474 169.122L212.487 168.885L212.434 168.648L212.237 168.424V168.187L212.355 167.937L212.263 167.713L212.184 167.476L212.303 167.24L212.211 167.003L212.263 166.766L212.25 166.529L212.303 166.292L212.237 166.055L212.158 165.818L212.211 165.581L212.039 165.344L212.25 165.107L212.263 164.87L212.224 164.633L212.079 164.396L212.053 164.159L212 163.922L212.211 163.685L212.237 163.448L212.079 163.211L212.066 162.974L212 162.737L212.026 162.5L212.171 162.263L212.039 162.026L212.224 161.789L212.197 161.552L212.171 161.315L212.118 161.078L212.263 160.841L212.079 160.604L212.237 160.367L212.276 160.13L212.237 159.893L212.066 159.656L212.158 159.419L212.171 159.182V158.945L212.158 158.708L212.263 158.485L212.25 158.234L212.263 157.997L212.355 157.774L212.171 157.524L212.303 157.3L212.316 157.063L212.276 156.813L212.448 156.589L212.276 156.339L212.527 156.128L212.369 155.878L212.355 155.628L212.434 155.404L212.553 155.18L212.421 154.93V154.693L212.566 154.469L212.606 154.232L212.632 153.995L212.764 153.771L212.75 153.534L212.606 153.271L212.829 153.061L212.816 152.824L212.724 152.573L212.922 152.363L212.79 152.099L213.053 151.902L213.08 151.665L212.908 151.402L212.961 151.165L212.974 150.928L213.014 150.704L213.066 150.467L213.08 150.23L213.145 149.993L213.343 149.796L213.211 149.532L213.448 149.335L213.527 149.111L213.317 148.821L213.382 148.597L213.527 148.387L213.659 148.163L213.672 147.926L213.659 147.689L213.856 147.478L213.843 147.241L213.962 147.031L213.843 146.754L214.041 146.557L214.106 146.333L214.133 146.096L214.106 145.846L214.199 145.622L214.172 145.372L214.357 145.175L214.449 144.951L214.304 144.674L214.528 144.49L214.633 144.266L214.567 144.003L214.673 143.792L214.765 143.568L214.87 143.345L214.883 143.108L214.91 142.871L215.054 142.673L215.068 142.423L215.081 142.173L215.16 141.962L215.12 141.699L215.37 141.528L215.357 141.278L215.581 141.093L215.541 140.843L215.673 140.632L215.739 140.396L215.686 140.132L215.831 139.935L216.002 139.737L215.897 139.461L216.16 139.303L216.134 139.039L216.121 138.776L216.252 138.579L216.397 138.381L216.384 138.118L216.41 137.881L216.661 137.71L216.753 137.499L216.884 137.302L216.766 136.999L217.042 136.854L217.148 136.643L217.161 136.393L217.24 136.169L217.358 135.959L217.516 135.761L217.385 135.459L217.701 135.327L217.556 135.011L217.714 134.827L217.819 134.616L218.03 134.445L218.082 134.208L218.161 133.984L218.214 133.747L218.411 133.576V133.313L218.596 133.141L218.609 132.891L218.635 132.641L218.912 132.51L218.859 132.22L218.938 131.996L219.096 131.799L219.149 131.575L219.32 131.39L219.465 131.193L219.623 131.009L219.57 130.719L219.833 130.587L219.965 130.39V130.127L220.004 129.876L220.255 129.745V129.468L220.544 129.363L220.597 129.113L220.636 128.876L220.781 128.678L220.966 128.507L220.913 128.204L221.11 128.047L221.124 127.783L221.321 127.625L221.426 127.415L221.571 127.217L221.716 127.033L221.821 126.822L221.913 126.598L222.124 126.454L222.098 126.164L222.203 125.94L222.401 125.782L222.585 125.624L222.677 125.4L222.875 125.242L222.914 124.992L223.059 124.808L223.177 124.597L223.309 124.4L223.362 124.15L223.599 124.018L223.757 123.834L223.901 123.662L223.928 123.399L224.046 123.189L224.31 123.083V122.78L224.599 122.701L224.652 122.451L224.691 122.188L224.876 122.03L225.126 121.911L225.271 121.727V121.438L225.402 121.24L225.639 121.122V120.819L225.955 120.766L226.113 120.582L226.232 120.371L226.311 120.147L226.455 119.95L226.627 119.792L226.837 119.66V119.357L227.101 119.265L227.127 118.976L227.206 118.739L227.403 118.594L227.522 118.383L227.667 118.199L227.89 118.067L227.943 117.817L228.312 117.804L228.338 117.527L228.588 117.422L228.746 117.238L228.878 117.054L228.917 116.764L229.062 116.593L229.233 116.422L229.444 116.29L229.668 116.171L229.786 115.961L229.865 115.711L230.01 115.526L230.26 115.434L230.431 115.263L230.497 115L230.695 114.855L230.813 114.657L230.932 114.447L231.129 114.289L231.327 114.157L231.55 114.039L231.656 113.815L231.906 113.736V113.394L232.196 113.354L232.248 113.064L232.551 113.051L232.709 112.867L232.801 112.63L232.933 112.419L233.249 112.393L233.367 112.182L233.486 111.959L233.617 111.761L233.841 111.643L233.986 111.458L234.157 111.3L234.315 111.116L234.578 111.063L234.736 110.866L234.908 110.708L235.039 110.497L235.21 110.339L235.329 110.129L235.618 110.089L235.684 109.813L235.895 109.694L236.053 109.51L236.343 109.483L236.54 109.352L236.698 109.168L236.83 108.957L236.961 108.746L237.132 108.588L237.317 108.443L237.501 108.272L237.778 108.246L237.988 108.127L238.054 107.838L238.265 107.732L238.475 107.601L238.673 107.469L238.87 107.351L238.989 107.101L239.134 106.903L239.305 106.758L239.66 106.824L239.805 106.627L239.976 106.455L240.134 106.258L240.345 106.166L240.582 106.087L240.648 105.758L240.95 105.784L241.095 105.587L241.359 105.547L241.53 105.363L241.635 105.113L241.885 105.06L242.004 104.81H242.293L242.372 104.507L242.715 104.586L242.846 104.362L242.991 104.152L243.228 104.086L243.439 103.967L243.544 103.704L243.82 103.678H244.097L244.215 103.427L244.373 103.23L244.597 103.151L244.782 102.993L244.953 102.822H245.229L245.453 102.73L245.585 102.493L245.756 102.308L245.966 102.203H246.243L246.44 102.085L246.651 101.966L246.783 101.716L247.059 101.742L247.309 101.703L247.375 101.334L247.691 101.4L247.796 101.11L248.02 101.031L248.218 100.9L248.415 100.755L248.692 100.781L248.889 100.65L249.087 100.505L249.258 100.334L249.574 100.399L249.692 100.123L249.929 100.083L250.166 100.018L250.416 99.9782L250.627 99.886L250.732 99.5569L250.943 99.4647L251.18 99.3989L251.456 99.412L251.575 99.1356L251.799 99.0434L252.101 99.1356L252.22 98.8196L252.457 98.7669H252.707L252.918 98.6353L253.155 98.5958L253.299 98.3457L253.589 98.4115L253.734 98.135L253.971 98.1087L254.155 97.9112L254.445 97.9902L254.603 97.7664L254.892 97.8454L255.024 97.5426L255.34 97.6874L255.538 97.5557L255.735 97.4241L255.946 97.3056L256.222 97.3319L256.367 97.0686L256.657 97.1608L256.867 97.0423L257.065 96.9106L257.249 96.7263L257.539 96.8053L257.736 96.6868L257.907 96.4762L258.144 96.4104L258.355 96.305L258.566 96.1734L258.842 96.2524L259.013 96.0286L259.303 96.1471L259.448 95.8311L259.711 95.8838L259.908 95.7258L260.145 95.6863L260.422 95.7521L260.632 95.6731L260.804 95.3966L261.067 95.4493L261.291 95.3835L261.528 95.3308L261.752 95.2518L261.989 95.2255L262.225 95.1992L262.423 95.028L262.686 95.0938L262.897 94.9885L263.121 94.8964L263.345 94.8042L263.529 94.5672L263.766 94.5409L263.976 94.4487L264.227 94.4356L264.503 94.5409L264.74 94.5146L264.951 94.4356L265.161 94.3039L265.359 94.1196L265.635 94.2118L265.872 94.1986L266.083 94.0669L266.28 93.8695L266.531 93.8826L266.781 93.909H267.018L267.255 93.8826L267.465 93.7247L267.702 93.6852L267.913 93.593L268.15 93.5403L268.374 93.435L268.611 93.4482L268.861 93.4613L269.071 93.2902L269.295 93.2507L269.559 93.3429L269.796 93.3297H270.032L270.269 93.2902L270.467 93.0664L270.73 93.198L270.941 93.0006L271.204 93.1322L271.428 93.0269L271.665 93.0401L271.902 93.0137L272.126 92.8689L272.363 92.8952L272.573 92.6846L272.837 92.8821L273.061 92.7899L273.284 92.6978L273.534 92.7109L273.758 92.6319L273.982 92.5134L274.245 92.7373L274.469 92.5793L274.706 92.6056L274.93 92.4476L275.18 92.5134L275.404 92.4213L275.654 92.5266L275.878 92.3555L276.115 92.316L276.352 92.3818L276.589 92.3028L276.813 92.2238L277.063 92.316L277.287 92.2238H277.524L277.774 92.3423L278.011 92.3818H278.248L278.485 92.3291H278.722L278.959 92.2238L279.182 92.1975L279.432 92.2765L279.656 92.0527L279.893 92.0922L280.13 92.158L280.367 92.0922L280.604 92.1448L280.841 92.0527L281.078 92H281.315L281.552 92.0658L281.789 92.0527L282.026 92.1975L282.263 92.0132L282.5 92.0395L282.737 92.1317L282.974 92.237L283.211 92.1185L283.448 92.0132L283.685 92.1317L283.922 92.079L284.159 92.0395L284.396 92.0527L284.633 92.2765L284.87 92.2633L285.107 92.3028L285.344 92.158L285.581 92.2501H285.818L286.068 92.079L286.292 92.2765L286.529 92.1317L286.766 92.3291L287.003 92.1975L287.24 92.3028H287.476L287.7 92.4345L287.937 92.4213L288.187 92.2896L288.424 92.2238L288.648 92.4081L288.885 92.5266L289.135 92.3291H289.372L289.596 92.5003L289.833 92.4608L290.057 92.5924L290.307 92.5266L290.531 92.6846L290.781 92.5793L291.018 92.5134L291.242 92.7241L291.466 92.7899L291.716 92.6978L291.926 92.8689L292.203 92.6714L292.427 92.7373L292.677 92.7109L292.887 92.8557H293.124L293.361 92.9216L293.572 93.0796L293.822 93.0532L294.085 92.9347L294.283 93.119L294.507 93.2375L294.783 93.0532L295.007 93.1717H295.244L295.455 93.3034L295.665 93.4613L295.902 93.514L296.152 93.4482L296.416 93.356L296.64 93.4482L296.876 93.4745L297.061 93.751L297.337 93.593H297.574L297.772 93.8036H298.009L298.219 93.9616L298.443 94.0406L298.733 93.8695L298.957 93.9221L299.167 94.0669L299.391 94.1591L299.641 94.1328L299.878 94.1854L300.076 94.3303L300.326 94.3171L300.563 94.3697L300.76 94.5541L300.971 94.6594L301.221 94.6331L301.484 94.6067L301.695 94.712L301.932 94.7515L302.116 94.949L302.393 94.8832L302.63 94.8964L302.801 95.1728L303.025 95.2255L303.288 95.1992L303.499 95.2913L303.722 95.3703L303.986 95.3308L304.157 95.5941L304.381 95.6468L304.591 95.7784L304.828 95.8179L305.065 95.8574L305.329 95.8048L305.487 96.0812L305.763 96.0022L305.974 96.1207L306.184 96.2261L306.382 96.3972L306.619 96.4367L306.829 96.5289L307.119 96.4499L307.29 96.6342L307.501 96.7527L307.711 96.858L307.935 96.937L308.238 96.8317L308.449 96.9238L308.58 97.2398L308.804 97.3188L309.094 97.2266L309.331 97.2793L309.489 97.5294L309.752 97.5162L309.897 97.7796L310.213 97.6479L310.41 97.7664L310.595 97.9639L310.805 98.056L311.003 98.1877L311.253 98.214L311.424 98.4247H311.674L311.885 98.5431L312.096 98.6485L312.346 98.6748L312.583 98.7275L312.741 98.9513L312.912 99.1487L313.188 99.0961L313.399 99.2277L313.636 99.2804L313.768 99.5437L314.083 99.4515L314.241 99.6622L314.413 99.8465L314.676 99.8333L314.9 99.9255L315.097 100.07L315.268 100.255L315.558 100.189L315.676 100.478L315.874 100.61L316.085 100.729L316.387 100.663L316.506 100.952L316.717 101.045L316.914 101.189L317.164 101.216L317.375 101.321L317.572 101.453L317.822 101.505L318.02 101.624L318.217 101.769L318.402 101.927L318.573 102.098L318.744 102.269L319.02 102.256L319.152 102.506L319.35 102.638L319.652 102.585L319.863 102.703L320.061 102.835L320.245 102.993L320.363 103.256L320.653 103.243L320.785 103.467L320.943 103.651L321.14 103.796L321.417 103.809L321.654 103.862L321.785 104.099L321.996 104.204L322.167 104.375L322.312 104.573L322.509 104.718L322.759 104.77L323.01 104.836L323.154 105.02L323.312 105.218L323.497 105.363L323.799 105.35L323.892 105.626L324.036 105.824L324.379 105.771L324.445 106.087L324.603 106.245L324.787 106.403L325.142 106.324L325.261 106.548L325.406 106.758L325.577 106.929L325.774 107.048L326.011 107.153L326.182 107.298L326.301 107.535H326.617L326.762 107.719L326.946 107.864L327.143 107.996L327.315 108.167L327.459 108.364L327.723 108.417L327.868 108.615L328.025 108.799L328.131 109.023L328.355 109.141L328.578 109.247L328.815 109.339L328.947 109.536L329.158 109.655L329.355 109.786L329.395 110.102L329.684 110.129L329.763 110.405L329.974 110.524L330.066 110.774L330.356 110.8L330.461 111.05L330.711 111.116L330.896 111.274L331.106 111.392L331.238 111.603L331.435 111.735L331.422 112.077L331.751 112.09L331.791 112.393L331.975 112.538L332.094 112.748L332.291 112.893L332.568 112.946L332.66 113.196L332.857 113.328L333.107 113.42L333.094 113.762L333.318 113.868L333.436 114.078L333.752 114.118L333.897 114.302L333.963 114.552L334.161 114.697L334.292 114.894L334.542 115L334.555 115.303L334.753 115.447L334.95 115.592L335.227 115.658L335.266 115.934L335.464 116.079L335.596 116.277L335.635 116.553L335.819 116.698L336.004 116.856L336.267 116.948L336.412 117.132L336.491 117.383L336.715 117.501L336.728 117.804L337.057 117.83L337.123 118.094L337.241 118.304L337.425 118.449L337.662 118.568L337.807 118.752L337.755 119.094L338.057 119.16L338.084 119.436L338.202 119.647L338.373 119.805L338.492 120.016L338.624 120.213L338.9 120.305L338.992 120.529L339.045 120.792L339.176 120.977L339.479 121.056L339.624 121.24L339.611 121.543L339.861 121.661L340.032 121.819L340.019 122.122L340.322 122.201V122.491L340.427 122.701L340.69 122.807L340.809 123.017L340.914 123.228L341.02 123.439L341.138 123.649L341.362 123.781L341.428 124.018L341.665 124.15L341.652 124.439L341.875 124.584L341.994 124.795L342.099 124.992L342.297 125.15L342.402 125.374L342.52 125.571L342.494 125.874L342.718 126.019L342.797 126.243L343.034 126.375L343.152 126.585L343.139 126.862L343.218 127.085L343.547 127.178V127.454L343.784 127.586L343.903 127.783L343.863 128.086L343.955 128.297L344.245 128.415L344.35 128.626V128.902L344.522 129.073L344.68 129.258L344.666 129.534L344.917 129.666L344.903 129.942L345.088 130.113L345.035 130.403L345.285 130.548L345.325 130.785L345.496 130.969L345.654 131.154L345.785 131.351L345.851 131.588L345.917 131.812L346.036 132.022V132.286L346.22 132.457V132.72L346.338 132.931L346.523 133.102L346.654 133.299L346.72 133.536L346.668 133.813L346.812 134.01L346.839 134.261L347.102 134.405L347.181 134.629L347.22 134.866L347.352 135.064L347.326 135.327L347.431 135.551L347.642 135.722L347.681 135.946L347.8 136.156L347.958 136.354L347.879 136.643L348.182 136.775L348.103 137.065L348.274 137.249L348.432 137.447L348.366 137.723L348.392 137.96L348.669 138.118L348.774 138.329L348.629 138.631L348.761 138.829L348.866 139.039L348.84 139.303L348.971 139.513L349.064 139.724L349.169 139.948L349.393 140.119L349.314 140.396L349.353 140.632L349.445 140.843L349.682 141.027L349.603 141.291L349.63 141.528L349.656 141.778L349.932 141.936L350.012 142.16L349.972 142.423L350.117 142.62L350.235 142.844L350.051 143.134L350.327 143.305L350.42 143.529L350.248 143.818L350.341 144.042L350.472 144.24L350.67 144.437L350.499 144.727L350.709 144.924L350.617 145.188L350.696 145.411L350.907 145.596L350.973 145.833L351.065 146.043L351.091 146.294L351.038 146.544L351.183 146.754L351.117 147.004L351.21 147.228L351.157 147.492L351.223 147.715L351.262 147.952L351.394 148.163L351.486 148.387L351.618 148.597L351.67 148.834L351.486 149.111L351.657 149.308L351.683 149.545L351.644 149.796L351.683 150.032L351.749 150.256L351.841 150.48L351.973 150.704L351.934 150.954V151.191L352.131 151.402L352.052 151.652V151.889L352.065 152.126L352.289 152.336L352.144 152.587L352.263 152.81L352.118 153.074L352.342 153.284L352.315 153.521L352.368 153.758L352.329 153.995L352.355 154.232L352.421 154.469L352.579 154.693L352.408 154.943L352.447 155.18L352.46 155.417L352.631 155.641L352.697 155.865L352.487 156.128L352.579 156.352L352.71 156.576L352.618 156.826L352.579 157.063L352.671 157.3L352.776 157.524L352.737 157.761L352.882 157.997L352.829 158.234L352.776 158.471L352.868 158.708L352.658 158.959L352.724 159.182L352.803 159.419L352.724 159.656L352.895 159.893L352.855 160.13L352.895 160.367L352.921 160.604L352.934 160.841L352.868 161.078L352.947 161.315L352.776 161.552L352.855 161.789L352.921 162.026L352.947 162.263L352.855 162.5Z" fill="#64B4FA"/>
<path d="M117.819 214L117.934 214.296L118 214.592L117.967 214.887L117.786 215.183L117.984 215.479L117.885 215.775L117.737 216.071L117.918 216.366L117.836 216.662L117.852 216.958L117.786 217.254V217.55L117.606 217.829L117.671 218.141L117.622 218.421L117.737 218.733L117.638 219.012L117.556 219.308L117.655 219.62L117.606 219.9L117.803 220.212L117.491 220.491L117.573 220.787L117.507 221.083L117.408 221.362L117.523 221.674L117.606 221.987L117.408 222.266L117.507 222.562L117.556 222.874L117.441 223.153L117.326 223.433L117.244 223.728L117.228 224.024L117.178 224.32L117.261 224.616L117.063 224.895L117.244 225.224L117.162 225.503L117.047 225.783L117.08 226.095L117.145 226.391L116.817 226.654L116.833 226.949L116.702 227.229L116.718 227.525L116.866 227.853L116.8 228.149V228.445L116.768 228.741L116.62 229.004L116.636 229.316L116.57 229.612L116.587 229.907L116.324 230.154L116.176 230.433L116.373 230.778L116.307 231.058L116.077 231.321L115.995 231.6L116.012 231.896L116.094 232.224L115.749 232.455L115.798 232.767L115.814 233.063L115.847 233.375L115.765 233.671L115.732 233.966L115.42 234.196L115.321 234.476L115.371 234.788L115.354 235.084L115.321 235.38L115.108 235.643L114.976 235.906L114.943 236.201L114.911 236.497L114.828 236.793L114.911 237.122L114.861 237.417L114.648 237.664V237.96L114.565 238.255L114.401 238.502L114.22 238.765L114.138 239.044L113.99 239.307L114.105 239.652V239.965L113.744 240.162L113.727 240.458V240.77L113.744 241.098L113.563 241.345L113.415 241.608L113.333 241.887L113.218 242.167L113.004 242.413L113.119 242.758L112.906 243.005L113.004 243.333L112.758 243.563L112.791 243.892L112.495 244.106L112.528 244.434L112.347 244.681L112.199 244.944L112.248 245.272L111.969 245.486L111.92 245.782L111.723 246.028L111.591 246.291L111.69 246.653L111.345 246.817L111.377 247.162L111.213 247.409L110.999 247.639L111.147 248.017L110.852 248.214L110.72 248.477L110.654 248.773L110.572 249.052L110.375 249.299L110.194 249.545L110.26 249.89L110.063 250.137L110.03 250.432L109.866 250.679V251.008L109.471 251.156L109.52 251.517L109.422 251.796L109.34 252.076L109.175 252.322L108.88 252.503L108.945 252.865L108.847 253.144L108.715 253.423L108.584 253.686L108.189 253.818L108.206 254.163L107.943 254.36L107.959 254.689L107.811 254.952L107.532 255.132V255.477L107.401 255.74L107.088 255.905L107.121 256.25L106.973 256.513L106.825 256.776L106.595 256.973L106.513 257.269L106.415 257.548L106.069 257.696L106.02 258.008V258.353L105.774 258.551L105.609 258.797L105.429 259.027L105.215 259.257L105.199 259.586L105.116 259.882L104.919 260.112L104.673 260.309L104.64 260.638L104.393 260.818L104.065 260.966L104.13 261.361L103.982 261.624L103.802 261.854L103.506 262.018L103.276 262.215V262.577L102.98 262.725L102.849 262.987L102.832 263.349L102.52 263.48L102.536 263.858L102.257 264.023L102.06 264.236L102.027 264.582L101.6 264.647L101.435 264.894L101.32 265.173L101.156 265.42L101.057 265.715L100.762 265.863L100.794 266.241L100.581 266.455L100.219 266.553L100.236 266.931L99.8741 267.046L99.7755 267.326L99.5948 267.572L99.3811 267.77L99.3647 268.131L99.0032 268.23L98.8717 268.493L98.6088 268.657L98.4444 268.903L98.428 269.281L98.0336 269.347L97.9515 269.643L97.6885 269.824V270.202L97.4256 270.366L97.1298 270.514L97.1134 270.892L96.7683 270.974L96.6039 271.221L96.4067 271.434L96.226 271.664L96.1438 271.993L95.7987 272.092L95.7494 272.437L95.4207 272.535L95.2235 272.765L95.1085 273.061L94.9442 273.308L94.6319 273.423L94.4676 273.669L94.1718 273.801L94.0239 274.063L93.8431 274.294L93.6131 274.491L93.4323 274.721L93.3009 275L92.9229 275.066L92.7257 275.28V275.69L92.4627 275.838L92.1176 275.92L91.9862 276.216L91.8712 276.512L91.5589 276.611L91.296 276.759L91.0659 276.956L91.0495 277.367L90.8523 277.58L90.6058 277.761L90.3264 277.892L90.1128 278.09L89.9978 278.402L89.6362 278.435L89.5376 278.78H89.1432L88.9625 279.026L88.8967 279.388L88.5681 279.454L88.4695 279.799L88.1737 279.914L88.0258 280.193L87.7464 280.325L87.4999 280.472L87.237 280.637L86.9576 280.752L86.744 280.965L86.629 281.294L86.3496 281.409L86.1524 281.639L85.9716 281.886L85.643 281.951L85.4458 282.182L85.2979 282.477L85.0021 282.576L84.6734 282.642L84.6077 283.036L84.1804 282.954L84.1147 283.365L83.7203 283.332L83.5888 283.644L83.3587 283.825L83.1451 284.038L82.8986 284.203L82.7014 284.449L82.4878 284.647L82.192 284.729L81.9126 284.844L81.7483 285.123L81.4689 285.238L81.1238 285.287L81.0088 285.632H80.6473L80.4336 285.846L80.2528 286.093L80.0228 286.29L79.8256 286.503L79.4148 286.438L79.2833 286.783L79.1025 287.029L78.7246 286.996L78.4781 287.177L78.2809 287.374L78.0344 287.539L77.7714 287.703L77.5249 287.851L77.2456 287.966L77.0155 288.163L76.7033 288.229L76.5882 288.59L76.3253 288.738L75.9802 288.722L75.783 288.952L75.4708 289.018L75.3722 289.445L75.0107 289.396L74.7642 289.56L74.5505 289.774L74.3369 290.004L73.9425 289.938L73.8275 290.3L73.4331 290.234L73.2359 290.464L72.9894 290.645L72.71 290.727L72.4635 290.908L72.1513 290.94L71.9048 291.105L71.7076 291.351L71.4446 291.499L71.1817 291.631L70.9681 291.861L70.5901 291.762L70.3436 291.926L70.13 292.189L69.8342 292.239L69.6698 292.584L69.2919 292.502L69.0947 292.732L68.8153 292.863H68.4867L68.3223 293.192H67.9937L67.6979 293.241L67.4514 293.405L67.2542 293.701L66.9255 293.685L66.7119 293.948L66.4489 294.079L66.1367 294.096L65.8738 294.227H65.5451L65.3479 294.49L65.0685 294.605L64.7234 294.539L64.5262 294.852L64.2304 294.917L63.9675 295.032L63.721 295.197L63.4088 295.213L63.0966 295.246L62.9158 295.607L62.62 295.673L62.3899 295.854L62.0284 295.755L61.7654 295.903L61.4532 295.92L61.2232 296.117L60.9438 296.216L60.7137 296.462L60.4344 296.544L60.1714 296.692L59.8921 296.807H59.5798L59.3169 296.955L58.9718 296.824L58.7089 297.004L58.4295 297.103L58.1501 297.202L57.9201 297.415L57.575 297.349L57.3285 297.53L57.0656 297.645L56.7533 297.678L56.4739 297.76L56.1946 297.826L55.8988 297.908L55.6687 298.138H55.3565L55.0278 298.105L54.7978 298.368L54.4691 298.27L54.2062 298.418L53.9104 298.434L53.6639 298.664L53.3516 298.631L53.1216 298.943L52.8422 299.009L52.5135 298.943L52.2178 298.96L51.9384 299.075L51.659 299.19L51.3632 299.206L51.1167 299.42L50.8209 299.486L50.5087 299.436L50.18 299.371L49.9171 299.502L49.6377 299.584L49.3748 299.798L49.0461 299.716L48.7832 299.847L48.5203 300.028L48.208 299.979L47.9122 299.995L47.5836 299.929L47.3042 300.012L47.0741 300.373L46.7455 300.209H46.4497L46.1539 300.291L45.8581 300.258L45.6116 300.587L45.3158 300.62L45.02 300.636L44.6913 300.472L44.412 300.587L44.1326 300.669L43.8204 300.652L43.541 300.735L43.2781 300.965L42.9658 300.915L42.6536 300.8L42.3742 300.915L42.1113 301.178L41.7991 301.047L41.4868 301.014L41.191 301.047L40.9117 301.129L40.6323 301.261L40.3201 301.129L40.0243 301.145L39.7285 301.162L39.4655 301.474L39.1533 301.392L38.8411 301.244L38.5617 301.376L38.2824 301.606L37.9866 301.671L37.6743 301.491L37.395 301.655L37.0992 301.671H36.8034L36.5076 301.606L36.2282 301.803L35.916 301.606L35.6202 301.77L35.3244 301.655L35.0286 301.671L34.7328 301.638L34.437 301.836L34.1576 301.885L33.8454 301.786H33.5496L33.2538 301.901L32.9744 301.967L32.6622 301.737H32.3664L32.0706 301.786L31.7748 301.869L31.479 301.671L31.1832 301.803L30.8874 301.77L30.5916 302L30.2958 301.721H30L29.7042 301.753L29.4084 301.77L29.1126 301.951L28.8168 301.721L28.521 301.885L28.2252 301.967L27.9294 302L27.6336 301.934L27.3378 301.836L27.042 301.852L26.7627 301.622L26.4669 301.638L26.1546 301.869L25.8753 301.688L25.5795 301.704L25.2837 301.753H24.9714L24.6756 301.852L24.3963 301.638L24.084 301.803L23.8047 301.589L23.4924 301.77L23.2131 301.491L22.9173 301.54L22.6215 301.523L22.3421 301.408L22.0299 301.54L21.7341 301.573L21.4383 301.425L21.1261 301.589L20.8467 301.474L20.5673 301.244L20.2715 301.359L19.9757 301.244L19.6799 301.277L19.3841 301.31L19.1048 301.063L18.7925 301.228L18.4967 301.244L18.2338 300.965L17.9216 300.981L17.6422 300.948L17.3628 300.784H17.067L16.7712 300.751L16.4754 300.718L16.1796 300.702L15.8839 300.685L15.5881 300.652L15.2923 300.636L15.0293 300.422L14.7171 300.455L14.4377 300.34L14.1091 300.554L13.8133 300.521L13.5503 300.324L13.2545 300.291L12.9916 300.11L12.6465 300.258L12.4164 299.946L12.1371 299.864L11.8084 299.929L11.4962 300.012L11.2332 299.814L10.9374 299.782L10.6745 299.617L10.3623 299.65L10.0336 299.732L9.81998 299.338L9.47488 299.568L9.24483 299.272L8.94902 299.223L8.62035 299.321L8.35743 299.141L8.07806 299.042L7.7494 299.141L7.53576 298.779L7.17423 298.993L6.89487 298.894L6.64837 298.681L6.30327 298.779L6.08964 298.467H5.7774L5.51448 298.319L5.18581 298.385L4.92287 298.253L4.64351 298.155L4.33128 298.138L4.05192 298.04L3.77255 297.99L3.50962 297.793L3.24669 297.695L2.93445 297.645L2.68796 297.481L2.35929 297.53L2.07993 297.399L1.83343 297.218L1.55407 297.136L1.25827 297.086L0.946037 297.07L0.76527 296.692L0.469467 296.659L0.190105 296.544L-0.0563927 296.396L-0.352192 296.331L-0.647991 296.265L-0.927361 296.199L-1.22315 296.117L-1.50252 296.051L-1.73259 295.805L-2.02838 295.723L-2.37348 295.821L-2.61998 295.64L-2.91578 295.591L-3.17871 295.46L-3.42521 295.279L-3.65527 295.049L-3.95107 294.983L-4.26331 294.967L-4.5591 294.917L-4.83847 294.802L-5.11784 294.687L-5.3479 294.506L-5.56153 294.26L-5.82446 294.128L-6.16956 294.161L-6.46536 294.096L-6.69542 293.882L-7.00766 293.866L-7.22129 293.603L-7.41849 293.34L-7.76358 293.373L-8.01008 293.225L-8.22372 292.962L-8.60168 293.06L-8.88104 292.962L-9.12754 292.814L-9.27544 292.452L-9.62054 292.469L-9.83417 292.222L-10.13 292.173L-10.3765 291.992L-10.6723 291.926L-10.8859 291.713L-11.2474 291.762L-11.4282 291.45L-11.6418 291.22L-12.0034 291.286L-12.1348 290.924L-12.4799 290.908L-12.7264 290.76L-13.0715 290.776L-13.2852 290.546L-13.581 290.48L-13.7453 290.168L-14.074 290.135L-14.2547 289.839L-14.4683 289.642L-14.8627 289.724L-14.9449 289.297L-15.2736 289.248L-15.5694 289.166L-15.7337 288.886L-16.0295 288.804L-16.2267 288.558L-16.4896 288.41L-16.8512 288.426L-17.1305 288.311L-17.2456 287.95L-17.4592 287.736L-17.87 287.835L-18.0508 287.572L-18.2316 287.292L-18.4452 287.095H-18.8067L-18.9711 286.816L-19.234 286.684L-19.4476 286.471L-19.8584 286.553L-20.0392 286.29L-20.1707 285.978L-20.5486 285.994L-20.6308 285.583L-21.0581 285.665L-21.1074 285.255L-21.4689 285.222L-21.6004 284.926L-21.9126 284.844L-22.2248 284.778L-22.5042 284.63L-22.6192 284.301L-22.8657 284.154L-23.0301 283.874H-23.408L-23.5559 283.595L-23.8353 283.463L-23.9339 283.118L-24.2133 283.003L-24.4598 282.822L-24.7556 282.724L-24.9363 282.477L-25.265 282.412L-25.3307 282.017L-25.7416 282.05L-26.0045 281.902L-26.2345 281.721L-26.3496 281.393L-26.5139 281.13H-26.8919L-26.9247 280.703L-27.3356 280.735L-27.3684 280.325H-27.7628L-27.8779 280.012L-28.223 279.963L-28.4695 279.782L-28.5681 279.454L-28.8803 279.355L-28.946 278.977L-29.2583 278.895L-29.5541 278.763L-29.6855 278.484L-29.8663 278.238L-29.9978 277.958L-30.2771 277.827L-30.5894 277.712L-30.7208 277.416L-30.918 277.202L-31.1974 277.071L-31.3781 276.841L-31.526 276.561L-31.904 276.528L-31.9697 276.183L-32.1012 275.888L-32.3477 275.707L-32.6106 275.559L-32.9557 275.493L-33.005 275.132L-33.2022 274.902L-33.5145 274.787L-33.5473 274.409L-33.9089 274.343L-34.0896 274.113L-34.3197 273.932L-34.5333 273.718L-34.6319 273.406L-34.8291 273.193L-35.1907 273.11L-35.2564 272.782L-35.5522 272.65L-35.6015 272.305L-35.8973 272.157L-35.9959 271.861L-36.2917 271.73L-36.5218 271.533L-36.5875 271.204L-36.7683 270.958L-36.8997 270.678L-37.3106 270.645L-37.5242 270.432L-37.6721 270.169L-37.7378 269.84L-37.9186 269.61L-38.1651 269.429L-38.2637 269.134L-38.428 268.887L-38.6745 268.706L-38.9539 268.542L-39.0689 268.263L-39.2497 268.032L-39.4633 267.819L-39.6112 267.572L-39.8413 267.375L-39.9727 267.096L-40.2685 266.948L-40.3014 266.603L-40.6465 266.504L-40.6794 266.143L-40.7944 265.863L-40.9423 265.617L-41.2217 265.452L-41.3203 265.157L-41.4682 264.894L-41.5996 264.631L-41.764 264.384L-42.0269 264.22L-42.0926 263.891L-42.372 263.727L-42.6678 263.563L-42.6185 263.185L-43.0129 263.103L-43.1608 262.84L-43.358 262.61L-43.4073 262.297L-43.6209 262.067L-43.7359 261.804L-43.966 261.591V261.246L-44.081 260.966L-44.2782 260.736L-44.4426 260.506L-44.5247 260.194L-44.8863 260.079L-45.0999 259.865L-45.2314 259.602L-45.3464 259.323L-45.5272 259.076L-45.7244 258.863L-45.6258 258.452L-45.8723 258.255L-45.9709 257.959L-46.2174 257.778L-46.4803 257.581L-46.546 257.285L-46.7268 257.039L-46.6939 256.694L-46.9569 256.496L-47.2034 256.283L-47.0883 255.888L-47.4499 255.757L-47.6306 255.51L-47.7457 255.247V254.902L-47.8278 254.607L-48.0908 254.409L-48.025 254.048L-48.2387 253.834L-48.4852 253.621L-48.6824 253.39L-48.6331 253.029L-48.9453 252.865L-48.9617 252.536L-49.126 252.289L-49.3561 252.076V251.747L-49.619 251.534L-49.5697 251.188L-49.6683 250.909L-49.8655 250.679L-49.9148 250.367L-50.2599 250.202L-50.2271 249.874L-50.3421 249.594L-50.49 249.331L-50.4407 249.003L-50.6872 248.789L-50.7365 248.477L-51.0487 248.296L-50.8844 247.902L-51.3117 247.754L-51.1145 247.359L-51.5253 247.212V246.883L-51.6075 246.604L-51.8375 246.373L-51.8868 246.078L-51.8375 245.733L-51.9361 245.47L-52.1991 245.24L-52.3963 245.01L-52.2484 244.632L-52.2977 244.336L-52.4784 244.089V243.777L-52.5935 243.498L-52.84 243.284L-53.0207 243.021L-53.2015 242.775L-53.0536 242.413L-53.1522 242.134L-53.3165 241.887L-53.3823 241.591L-53.6781 241.378L-53.4644 241L-53.5302 240.704L-53.6616 240.441L-54.0396 240.244V239.948L-54.1546 239.669L-54.0889 239.34L-54.2039 239.061L-54.2532 238.765L-54.2204 238.453L-54.434 238.206L-54.549 237.927L-54.6476 237.647L-54.7462 237.368L-54.7955 237.089L-54.6969 236.744L-54.9599 236.514L-54.8613 236.185L-55.0092 235.922L-55.1077 235.643L-55.3871 235.396L-55.2063 235.051L-55.3214 234.772L-55.4528 234.509L-55.3871 234.18L-55.5679 233.934L-55.4857 233.605L-55.535 233.309L-55.913 233.095L-55.6665 232.734L-55.7486 232.455L-56.0609 232.224L-56.1266 231.929L-55.9787 231.6L-56.1923 231.337L-56.2745 231.058L-56.2088 230.745L-56.4224 230.483L-56.3074 230.154L-56.4553 229.891L-56.3567 229.562L-56.4224 229.283L-56.5374 229.004V228.691L-56.6525 228.412L-56.5867 228.116L-56.6853 227.82L-56.6525 227.525L-56.9976 227.278L-56.8332 226.949L-57.0304 226.686L-57.1126 226.391L-56.9647 226.078L-57.1126 225.799L-56.9483 225.47L-57.1783 225.207L-57.2441 224.912L-57.2934 224.632L-57.2769 224.337L-57.2276 224.024L-57.4084 223.745L-57.4741 223.466L-57.3427 223.153L-57.4248 222.858L-57.5234 222.578L-57.4084 222.266L-57.392 221.97L-57.4577 221.674L-57.7042 221.395V221.099L-57.5563 220.787L-57.6713 220.508L-57.7699 220.212L-57.622 219.916L-57.7371 219.62L-57.6713 219.324L-57.6878 219.029L-57.622 218.733L-57.7042 218.437L-57.8028 218.141L-57.7371 217.845L-57.9507 217.55L-57.6878 217.254L-57.6713 216.958L-57.7206 216.662L-57.9014 216.366L-57.9343 216.071L-58 215.775L-57.7371 215.479L-57.7042 215.183L-57.9014 214.887L-57.9178 214.592L-58 214.296L-57.9671 214L-57.7864 213.704L-57.9507 213.408L-57.7206 213.113L-57.7535 212.817L-57.7864 212.521L-57.8521 212.225L-57.6713 211.929L-57.9014 211.634L-57.7042 211.338L-57.6549 211.042L-57.7042 210.746L-57.9178 210.45L-57.8028 210.155L-57.7864 209.859V209.563L-57.8028 209.267L-57.6713 208.988L-57.6878 208.676L-57.6713 208.38L-57.5563 208.1L-57.7864 207.788L-57.622 207.509L-57.6056 207.213L-57.6549 206.901L-57.4413 206.621L-57.6549 206.309L-57.3427 206.046L-57.5399 205.734L-57.5563 205.422L-57.4577 205.142L-57.3098 204.863L-57.4741 204.551V204.255L-57.2934 203.976L-57.2441 203.68L-57.2112 203.384L-57.0469 203.105L-57.0633 202.809L-57.2441 202.48L-56.9647 202.217L-56.9811 201.922L-57.0962 201.609L-56.8497 201.346L-57.014 201.018L-56.6853 200.771L-56.6525 200.475L-56.8661 200.147L-56.8004 199.851L-56.7839 199.555L-56.7346 199.276L-56.6689 198.98L-56.6525 198.684L-56.5703 198.388L-56.3238 198.142L-56.4881 197.813L-56.1923 197.567L-56.0937 197.287L-56.3567 196.926L-56.2745 196.646L-56.0937 196.384L-55.9294 196.104L-55.913 195.808L-55.9294 195.513L-55.6829 195.25L-55.6993 194.954L-55.5514 194.691L-55.6993 194.346L-55.4528 194.099L-55.3707 193.82L-55.3378 193.524L-55.3707 193.212L-55.2556 192.933L-55.2885 192.62L-55.0584 192.374L-54.9434 192.094L-55.1242 191.749L-54.8448 191.519L-54.7134 191.24L-54.7955 190.911L-54.6641 190.648L-54.549 190.369L-54.4176 190.09L-54.4011 189.794L-54.3683 189.498L-54.1875 189.252L-54.1711 188.939L-54.1546 188.627L-54.056 188.364L-54.1053 188.035L-53.7931 187.822L-53.8095 187.51L-53.5302 187.28L-53.5795 186.967L-53.4151 186.704L-53.333 186.409L-53.3987 186.08L-53.2179 185.833L-53.0043 185.587L-53.1358 185.242L-52.8071 185.045L-52.84 184.716L-52.8564 184.387L-52.6921 184.141L-52.5113 183.894L-52.5277 183.566L-52.4949 183.27L-52.1826 183.056L-52.0676 182.793L-51.9033 182.547L-52.0512 182.169L-51.7061 181.988L-51.5746 181.725L-51.5582 181.413L-51.4596 181.134L-51.3117 180.871L-51.1145 180.624L-51.2788 180.246L-50.8844 180.082L-51.0652 179.687L-50.868 179.457L-50.7365 179.194L-50.4736 178.981L-50.4078 178.685L-50.3092 178.406L-50.2435 178.11L-49.997 177.896V177.568L-49.7669 177.354L-49.7505 177.042L-49.7176 176.729L-49.3725 176.565L-49.4383 176.204L-49.3397 175.924L-49.1425 175.678L-49.0768 175.398L-48.8631 175.168L-48.6824 174.922L-48.4852 174.692L-48.5509 174.33L-48.2222 174.166L-48.0579 173.919V173.591L-48.0086 173.278L-47.6964 173.114V172.769L-47.3348 172.638L-47.2691 172.325L-47.2198 172.03L-47.039 171.783L-46.809 171.569L-46.8747 171.191L-46.6282 170.994L-46.6118 170.666L-46.3653 170.468L-46.2338 170.205L-46.053 169.959L-45.8723 169.729L-45.7408 169.466L-45.6258 169.187L-45.3628 169.006L-45.3957 168.644L-45.2642 168.365L-45.0177 168.168L-44.7877 167.97L-44.6726 167.691L-44.4261 167.494L-44.3768 167.182L-44.1961 166.952L-44.0482 166.689L-43.8838 166.442L-43.8181 166.13L-43.5223 165.966L-43.3251 165.736L-43.1444 165.522L-43.1115 165.193L-42.9636 164.93L-42.6349 164.799V164.421L-42.2734 164.322L-42.2077 164.01L-42.1584 163.681L-41.9283 163.484L-41.6161 163.336L-41.4353 163.106V162.745L-41.271 162.498L-40.9752 162.35V161.972L-40.5808 161.907L-40.3836 161.677L-40.2357 161.414L-40.1371 161.134L-39.9563 160.888L-39.7427 160.691L-39.4797 160.526V160.148L-39.1511 160.033L-39.1182 159.672L-39.0196 159.376L-38.7731 159.195L-38.6252 158.932L-38.4444 158.702L-38.1651 158.538L-38.0993 158.226L-37.6392 158.209L-37.6063 157.864L-37.2941 157.733L-37.0969 157.503L-36.9326 157.272L-36.8833 156.911L-36.7025 156.697L-36.4889 156.484L-36.226 156.319L-35.9466 156.171L-35.7987 155.908L-35.7001 155.596L-35.5193 155.366L-35.2071 155.251L-34.9935 155.038L-34.9113 154.709L-34.6648 154.528L-34.5169 154.282L-34.369 154.019L-34.1225 153.821L-33.876 153.657L-33.5966 153.509L-33.4652 153.23L-33.1529 153.131V152.704L-32.7914 152.655L-32.7257 152.293L-32.3477 152.277L-32.1505 152.047L-32.0355 151.751L-31.8711 151.488L-31.4768 151.455L-31.3288 151.192L-31.181 150.913L-31.0166 150.666L-30.7373 150.518L-30.5565 150.288L-30.3429 150.091L-30.1457 149.861L-29.817 149.795L-29.6198 149.549L-29.4062 149.352L-29.2418 149.089L-29.0282 148.892L-28.8803 148.629L-28.5188 148.579L-28.4366 148.234L-28.1737 148.086L-27.9765 147.856L-27.6149 147.823L-27.3684 147.659L-27.1712 147.429L-27.0069 147.166L-26.8426 146.903L-26.6289 146.706L-26.3989 146.525L-26.1688 146.311L-25.8237 146.279L-25.5608 146.131L-25.4786 145.769L-25.2157 145.638L-24.9528 145.473L-24.7063 145.309L-24.4598 145.161L-24.3119 144.849L-24.1311 144.602L-23.9175 144.422L-23.4738 144.504L-23.293 144.257L-23.0794 144.044L-22.8822 143.797L-22.6192 143.682L-22.3234 143.584L-22.2413 143.173L-21.8633 143.206L-21.6825 142.959L-21.3539 142.91L-21.1402 142.68L-21.0088 142.368L-20.6965 142.302L-20.5486 141.99H-20.1871L-20.0885 141.612L-19.6612 141.71L-19.4969 141.431L-19.3162 141.168L-19.0204 141.086L-18.7574 140.938L-18.626 140.609L-18.2809 140.576H-17.9358L-17.7879 140.264L-17.5907 140.018L-17.3113 139.919L-17.0812 139.722L-16.8676 139.508H-16.5225L-16.2431 139.393L-16.0788 139.097L-15.8652 138.867L-15.6022 138.736H-15.2571L-15.0106 138.588L-14.7477 138.44L-14.5834 138.128L-14.2383 138.161L-13.926 138.111L-13.8439 137.651L-13.4495 137.733L-13.318 137.372L-13.0387 137.273L-12.7922 137.109L-12.5457 136.928L-12.2006 136.961L-11.9541 136.797L-11.7076 136.616L-11.4939 136.402L-11.0995 136.484L-10.9516 136.139L-10.6558 136.09L-10.36 136.008L-10.0478 135.959L-9.78487 135.844L-9.6534 135.433L-9.39048 135.318L-9.09468 135.235L-8.74958 135.252L-8.60168 134.907L-8.32232 134.792L-7.94435 134.907L-7.79645 134.512L-7.50066 134.447H-7.18842L-6.92549 134.282L-6.62969 134.233L-6.44893 133.921L-6.08739 134.003L-5.90663 133.658L-5.61083 133.625L-5.38076 133.379L-5.01923 133.477L-4.82203 133.198L-4.4605 133.296L-4.29617 132.918L-3.90177 133.099L-3.65527 132.935L-3.40877 132.77L-3.14584 132.623L-2.80075 132.655L-2.61998 132.327L-2.25845 132.442L-1.99552 132.294L-1.74902 132.13L-1.51895 131.9L-1.15742 131.998L-0.910923 131.85L-0.697289 131.587L-0.401493 131.505L-0.138561 131.374L0.124374 131.209L0.469467 131.308L0.683105 131.029L1.04463 131.176L1.2254 130.782L1.55407 130.848L1.80056 130.651L2.09636 130.601L2.44146 130.683L2.70439 130.585L2.91803 130.24L3.24669 130.306L3.52605 130.223L3.82185 130.158L4.10122 130.059L4.39702 130.026L4.69281 129.993L4.93931 129.78L5.26797 129.862L5.53091 129.73L5.81027 129.615L6.08964 129.5L6.3197 129.204L6.61551 129.172L6.87843 129.057L7.19067 129.04L7.53576 129.172L7.83157 129.139L8.0945 129.04L8.35743 128.876L8.60392 128.646L8.94902 128.761L9.24483 128.744L9.50775 128.58L9.75425 128.334L10.0665 128.35L10.3787 128.383H10.6745L10.9703 128.35L11.2332 128.153L11.529 128.103L11.792 127.988L12.0878 127.923L12.3671 127.791L12.6629 127.808L12.9752 127.824L13.2381 127.61L13.5175 127.561L13.8461 127.676L14.1419 127.66H14.4377L14.7335 127.61L14.98 127.331L15.3087 127.495L15.5716 127.249L15.9003 127.413L16.1796 127.282L16.4754 127.298L16.7712 127.265L17.0506 127.085L17.3464 127.117L17.6093 126.855L17.938 127.101L18.2174 126.986L18.4967 126.871L18.809 126.887L19.0883 126.789L19.3677 126.641L19.6964 126.92L19.9757 126.723L20.2715 126.756L20.5509 126.559L20.8631 126.641L21.1425 126.526L21.4547 126.657L21.7341 126.444L22.0299 126.394L22.3257 126.477L22.6215 126.378L22.9008 126.279L23.2131 126.394L23.4924 126.279H23.7882L24.1005 126.427L24.3963 126.477H24.6921L24.9879 126.411H25.2837L25.5795 126.279L25.8588 126.246L26.1711 126.345L26.4504 126.066L26.7462 126.115L27.042 126.197L27.3378 126.115L27.6336 126.181L27.9294 126.066L28.2252 126H28.521L28.8168 126.082L29.1126 126.066L29.4084 126.246L29.7042 126.016L30 126.049L30.2958 126.164L30.5916 126.296L30.8874 126.148L31.1832 126.016L31.479 126.164L31.7748 126.099L32.0706 126.049L32.3664 126.066L32.6622 126.345L32.958 126.329L33.2538 126.378L33.5496 126.197L33.8454 126.312H34.1412L34.4534 126.099L34.7328 126.345L35.0286 126.164L35.3244 126.411L35.6202 126.246L35.916 126.378H36.2118L36.4911 126.542L36.7869 126.526L37.0992 126.362L37.395 126.279L37.6743 126.509L37.9701 126.657L38.2824 126.411H38.5782L38.8575 126.624L39.1533 126.575L39.4327 126.739L39.7449 126.657L40.0243 126.855L40.3365 126.723L40.6323 126.641L40.9117 126.904L41.191 126.986L41.5033 126.871L41.7662 127.085L42.1113 126.838L42.3907 126.92L42.7029 126.887L42.9658 127.068H43.2616L43.5574 127.15L43.8204 127.348L44.1326 127.315L44.4613 127.167L44.7078 127.397L44.9871 127.545L45.3322 127.315L45.6116 127.463H45.9074L46.1703 127.627L46.4332 127.824L46.729 127.89L47.0413 127.808L47.3699 127.693L47.6493 127.808L47.9451 127.841L48.1752 128.186L48.5203 127.988H48.8161L49.0626 128.251H49.3584L49.6213 128.449L49.9007 128.547L50.2622 128.334L50.5415 128.399L50.8045 128.58L51.0838 128.695L51.3961 128.662L51.6919 128.728L51.9384 128.909L52.2506 128.892L52.5464 128.958L52.7929 129.188L53.0558 129.32L53.3681 129.287L53.6967 129.254L53.9597 129.385L54.2555 129.435L54.4855 129.681L54.8306 129.599L55.1264 129.615L55.3401 129.96L55.6194 130.026L55.9481 129.993L56.211 130.108L56.4904 130.207L56.8191 130.158L57.0327 130.486L57.312 130.552L57.575 130.716L57.8708 130.766L58.1666 130.815L58.4952 130.749L58.6924 131.094L59.0375 130.996L59.3005 131.144L59.5634 131.275L59.8099 131.489L60.1057 131.538L60.3686 131.653L60.7302 131.554L60.9438 131.785L61.2067 131.932L61.4697 132.064L61.749 132.162L62.127 132.031L62.3899 132.146L62.5543 132.54L62.8336 132.639L63.1952 132.524L63.4909 132.59L63.6881 132.902L64.0168 132.886L64.1976 133.214L64.592 133.05L64.8385 133.198L65.0685 133.444L65.3315 133.559L65.578 133.724L65.8902 133.756L66.1038 134.019H66.4161L66.679 134.167L66.9419 134.299L67.2542 134.332L67.55 134.397L67.7472 134.677L67.9608 134.923L68.3059 134.858L68.5688 135.022L68.8646 135.088L69.029 135.416L69.4233 135.301L69.6205 135.564L69.8342 135.794L70.1629 135.778L70.4422 135.893L70.6887 136.074L70.9023 136.304L71.2639 136.221L71.4118 136.583L71.6583 136.747L71.9212 136.895L72.2992 136.813L72.4471 137.175L72.71 137.29L72.9565 137.47L73.2687 137.503L73.5317 137.635L73.7782 137.799L74.0904 137.865L74.3369 138.013L74.5834 138.193L74.8135 138.391L75.0271 138.604L75.2407 138.818L75.5858 138.801L75.7502 139.114L75.9966 139.278L76.3746 139.212L76.6375 139.36L76.884 139.525L77.1141 139.722L77.262 140.05L77.6235 140.034L77.7879 140.313L77.9851 140.543L78.2316 140.724L78.5767 140.741L78.8725 140.806L79.0368 141.102L79.2997 141.234L79.5134 141.447L79.6941 141.694L79.9406 141.875L80.2528 141.94L80.5651 142.022L80.7458 142.252L80.943 142.499L81.1731 142.68L81.5511 142.663L81.6661 143.008L81.8469 143.255L82.2741 143.189L82.3563 143.584L82.5535 143.781L82.7836 143.978L83.2273 143.879L83.3752 144.159L83.5559 144.422L83.7696 144.635L84.0161 144.783L84.3119 144.915L84.5255 145.095L84.6734 145.391H85.0678L85.2486 145.621L85.4786 145.802L85.7251 145.966L85.9388 146.18L86.1195 146.427L86.4482 146.492L86.629 146.739L86.8261 146.969L86.9576 147.248L87.237 147.396L87.5163 147.528L87.8121 147.643L87.9765 147.889L88.2394 148.037L88.4859 148.201L88.5352 148.596L88.8967 148.629L88.9953 148.974L89.2583 149.122L89.3733 149.434L89.7348 149.467L89.8663 149.779L90.1785 149.861L90.4086 150.058L90.6715 150.206L90.8359 150.469L91.0824 150.633L91.0659 151.061L91.4767 151.077L91.5261 151.455L91.7561 151.636L91.904 151.899L92.1505 152.08L92.4956 152.145L92.6107 152.458L92.8571 152.622L93.1694 152.737L93.1529 153.164L93.4323 153.296L93.5802 153.559L93.9746 153.608L94.1554 153.838L94.2375 154.15L94.484 154.331L94.6484 154.577L94.9606 154.709L94.977 155.087L95.2235 155.268L95.47 155.448L95.8151 155.531L95.8644 155.876L96.1109 156.056L96.2753 156.303L96.3246 156.648L96.5546 156.829L96.7847 157.026L97.1134 157.141L97.2941 157.371L97.3927 157.683L97.6721 157.831L97.6885 158.209L98.0993 158.242L98.1815 158.571L98.3294 158.834L98.5595 159.014L98.8553 159.162L99.036 159.392L98.9703 159.82L99.3483 159.902L99.3811 160.247L99.529 160.51L99.7427 160.707L99.8906 160.97L100.055 161.216L100.4 161.331L100.515 161.611L100.581 161.939L100.745 162.17L101.123 162.268L101.304 162.498L101.287 162.876L101.6 163.024L101.813 163.221L101.797 163.599L102.175 163.698V164.059L102.306 164.322L102.635 164.454L102.783 164.717L102.914 164.98L103.046 165.243L103.194 165.506L103.473 165.67L103.555 165.966L103.851 166.13L103.835 166.492L104.114 166.672L104.262 166.935L104.393 167.182L104.64 167.379L104.771 167.658L104.919 167.905L104.886 168.283L105.166 168.463L105.264 168.743L105.56 168.907L105.708 169.17L105.691 169.515L105.79 169.795L106.201 169.91V170.255L106.497 170.419L106.645 170.666L106.595 171.044L106.71 171.306L107.072 171.454L107.203 171.717V172.062L107.417 172.276L107.614 172.506L107.598 172.851L107.91 173.016L107.894 173.361L108.124 173.574L108.058 173.936L108.37 174.117L108.419 174.412L108.633 174.642L108.83 174.872L108.995 175.119L109.077 175.415L109.159 175.694L109.307 175.957V176.286L109.537 176.499V176.828L109.685 177.091L109.915 177.305L110.079 177.551L110.161 177.847L110.096 178.192L110.276 178.438L110.309 178.751L110.638 178.931L110.737 179.211L110.786 179.507L110.95 179.753L110.917 180.082L111.049 180.361L111.312 180.575L111.361 180.854L111.509 181.117L111.706 181.364L111.607 181.725L111.985 181.889L111.887 182.251L112.1 182.481L112.298 182.728L112.216 183.073L112.248 183.368L112.593 183.566L112.725 183.829L112.544 184.207L112.709 184.453L112.84 184.716L112.807 185.045L112.971 185.308L113.086 185.57L113.218 185.85L113.497 186.063L113.399 186.409L113.448 186.704L113.563 186.967L113.859 187.197L113.76 187.526L113.793 187.822L113.826 188.134L114.171 188.331L114.27 188.611L114.22 188.939L114.401 189.186L114.549 189.465L114.319 189.827L114.664 190.04L114.779 190.32L114.565 190.681L114.681 190.961L114.845 191.207L115.091 191.454L114.878 191.815L115.141 192.062L115.026 192.39L115.124 192.67L115.387 192.9L115.469 193.196L115.584 193.458L115.617 193.771L115.551 194.083L115.732 194.346L115.65 194.658L115.765 194.937L115.699 195.266L115.782 195.545L115.831 195.841L115.995 196.104L116.11 196.384L116.275 196.646L116.34 196.942L116.11 197.287L116.324 197.534L116.357 197.83L116.307 198.142L116.357 198.438L116.439 198.717L116.554 198.996L116.718 199.276L116.669 199.588V199.884L116.915 200.147L116.817 200.459V200.755L116.833 201.051L117.113 201.314L116.932 201.626L117.08 201.905L116.899 202.234L117.178 202.497L117.145 202.793L117.211 203.088L117.162 203.384L117.195 203.68L117.277 203.976L117.474 204.255L117.261 204.567L117.31 204.863L117.326 205.159L117.54 205.438L117.622 205.718L117.359 206.046L117.474 206.326L117.638 206.605L117.523 206.917L117.474 207.213L117.589 207.509L117.721 207.788L117.671 208.084L117.852 208.38L117.786 208.676L117.721 208.971L117.836 209.267L117.573 209.579L117.655 209.859L117.753 210.155L117.655 210.45L117.869 210.746L117.819 211.042L117.869 211.338L117.901 211.634L117.918 211.929L117.836 212.225L117.934 212.521L117.721 212.817L117.819 213.113L117.901 213.408L117.934 213.704L117.819 214Z" fill="#FFCC33"/>
</g>
</svg>
