<svg width="41" height="41" viewBox="0 0 41 41" fill="none" xmlns="http://www.w3.org/2000/svg">
<path d="M20.1956 0C9.09838 0 0.102539 8.99584 0.102539 20.0931C0.102539 31.1903 9.09838 40.1862 20.1956 40.1862C31.2929 40.1862 40.2887 31.1903 40.2887 20.0931C40.2887 8.99584 31.2929 0 20.1956 0ZM15.277 28.4213H11.2082V15.3273H15.277V28.4213ZM13.2175 13.7198C11.9323 13.7198 11.1014 12.8093 11.1014 11.6833C11.1014 10.5342 11.9575 9.65096 13.2698 9.65096C14.5821 9.65096 15.3858 10.5342 15.411 11.6833C15.411 12.8093 14.5821 13.7198 13.2175 13.7198ZM30.1375 28.4213H26.0687V21.1647C26.0687 19.4756 25.4784 18.3287 24.007 18.3287C22.8831 18.3287 22.2154 19.1052 21.9203 19.8524C21.8114 20.1182 21.7842 20.495 21.7842 20.8696V28.4192H17.7133V19.5029C17.7133 17.8682 17.661 16.5014 17.6065 15.3252H21.1417L21.328 17.144H21.4096C21.9454 16.2901 23.2577 15.03 25.4533 15.03C28.1303 15.03 30.1375 16.8238 30.1375 20.6791V28.4213Z" fill="#337BB1"/>
</svg>
