<svg width="320" height="74" viewBox="0 0 320 74" fill="none" xmlns="http://www.w3.org/2000/svg">
<ellipse cx="163.262" cy="67.6495" rx="61.3075" ry="61.836" fill="#FFBF00"/>
<path d="M-384.806 76.6344C-83.3387 62.7138 -72.66 10.2474 18.5195 10.2474C109.699 10.2474 117.503 55.3357 191.021 55.3357C264.54 55.3357 256.531 0 351.407 0C428.622 0 498.65 66.4028 547.32 66.4028C595.99 66.4028 552.043 69.682 588.187 75.4205C440.327 75.4205 -384.806 76.6344 -384.806 76.6344Z" fill="#192480"/>
<path d="M594 76.6345C562.127 59.3041 532.341 68.539 470.757 62.3393C409.174 56.1397 383.287 30.6538 297.049 30.6538C210.811 30.6538 187.618 59.3041 75.5312 59.3041C-36.5558 59.3041 -121.162 30.6538 -186.359 30.6538C-251.557 30.6538 -273.479 48.8565 -318.633 59.3041C-363.786 69.7516 -411.969 53.1743 -444 76.6345C-391.409 76.6345 594 76.6345 594 76.6345Z" fill="#0688FA"/>
</svg>
