<svg width="39" height="39" viewBox="0 0 39 39" fill="none" xmlns="http://www.w3.org/2000/svg">
<path d="M19.4155 0C8.74621 0 0.0952148 8.651 0.0952148 19.3203C0.0952148 29.9896 8.74621 38.6406 19.4155 38.6406C30.0848 38.6406 38.7358 29.9896 38.7358 19.3203C38.7358 8.651 30.0848 0 19.4155 0ZM28.7004 14.5635C28.7134 14.7662 28.7134 14.9775 28.7134 15.1845C28.7134 21.5154 23.8919 28.8079 15.0814 28.8079C12.3645 28.8079 9.84592 28.0187 7.72414 26.6603C8.11227 26.7034 8.48315 26.7206 8.8799 26.7206C11.1224 26.7206 13.1838 25.9616 14.8269 24.6765C12.7224 24.6334 10.9542 23.2533 10.3505 21.3558C11.0879 21.4636 11.7521 21.4636 12.5111 21.2696C11.4274 21.0494 10.4534 20.4609 9.75456 19.604C9.05567 18.7471 8.675 17.6746 8.67721 16.5689V16.5085C9.31116 16.8664 10.0572 17.0864 10.8378 17.1166C10.1816 16.6792 9.64348 16.0868 9.2711 15.3917C8.89872 14.6966 8.70362 13.9203 8.70309 13.1318C8.70309 12.2391 8.93597 11.424 9.35429 10.7167C10.5571 12.1974 12.058 13.4084 13.7594 14.271C15.4609 15.1336 17.3248 15.6285 19.2301 15.7236C18.553 12.4676 20.9853 9.83264 23.9092 9.83264C25.2892 9.83264 26.5312 10.4105 27.4067 11.342C28.4891 11.1393 29.5241 10.734 30.447 10.1906C30.0891 11.2989 29.3387 12.2347 28.3425 12.8256C29.3085 12.7221 30.24 12.4547 31.1025 12.0795C30.4513 13.0369 29.6363 13.8864 28.7004 14.5635Z" fill="#5DA8DC"/>
</svg>
