<svg width="80" height="80" viewBox="0 0 80 80" fill="none" xmlns="http://www.w3.org/2000/svg">
<circle cx="40" cy="40" r="40" fill="white"/>
<path d="M56.0842 20.8108L55.4635 24.4201L55.1942 28.0666L55.0222 31.7205L54.2444 35.3223L53.878 38.9539L53.9004 42.6302L53.4891 46.3585L49.8769 46.7604L46.347 47.0729L42.8021 47.1473L39.2647 47.2738L35.7198 47.2962L32.1899 47.5864L28.6525 47.5343L25.1151 47.8245L21.5777 47.9064L18.0328 47.7204L14.5777 47.6162L14.8993 44.0813L15.2433 40.4572L15.8416 36.8702L16.9559 33.3949L17.3598 29.7707L18.3769 26.2731L18.9004 22.7978L22.4602 22.1429L26.192 21.9494L29.9089 21.6592L33.6258 21.3466L37.3277 20.9001L41.0745 21.0192L44.7914 20.6918L48.5233 20.7438L52.2476 20.6248L55.972 20.2527L56.0842 20.8108Z" fill="#C8E3FA"/>
<path d="M21.5775 49.0003C21.5626 49.0003 21.5476 48.8142 21.5326 48.8142C20.9418 48.7845 20.9344 48.9779 20.3435 48.9482C19.7527 48.9184 19.7527 48.9184 19.1619 48.8886C18.5711 48.8589 18.5711 48.9333 17.9803 48.911C17.4044 48.8886 17.4119 48.8142 16.8361 48.7993C16.2602 48.7845 16.2677 48.7175 15.6918 48.7026C15.116 48.6877 15.1234 48.4645 14.5551 48.4421C14.2784 48.4347 14.0016 48.4942 13.8147 48.2933C13.6277 48.0849 13.5828 47.8096 13.6053 47.5342C13.6502 47.0208 13.5679 47.0133 13.6202 46.5073C13.6651 45.9863 13.8521 46.0087 13.8969 45.4952C13.9418 44.9817 13.867 44.9743 13.9119 44.4682C13.9568 43.9547 14.0091 43.9622 14.0615 43.4487C14.1063 42.9352 14.1288 42.9352 14.1737 42.4292C14.2185 41.9157 14.2784 41.9231 14.3232 41.4096C14.3681 40.8962 14.1138 40.8738 14.1811 40.3604C14.2634 39.7501 14.3382 39.7576 14.4429 39.1548C14.5401 38.5446 14.7121 38.5743 14.8093 37.9641C14.9066 37.3539 14.8991 37.3539 15.0038 36.7436C15.0113 36.699 14.8991 36.632 14.914 36.5874C15.0935 36.0218 15.0487 36.0069 15.2281 35.4413C15.4076 34.8758 15.3628 34.8609 15.5422 34.2953C15.7217 33.7297 15.9012 33.7744 16.0209 33.1939C16.148 32.6134 16.0732 32.5986 16.1405 32.0107C16.2078 31.4228 16.0134 31.4004 16.0807 30.8125C16.148 30.2246 16.3574 30.247 16.4173 29.6591C16.4397 29.6144 16.4472 29.5698 16.4621 29.5102C16.6267 28.9372 16.6715 28.9521 16.8361 28.3791C17.0006 27.8061 16.7089 27.7242 16.8734 27.1512C17.038 26.5782 17.3745 26.6675 17.5017 26.0796C17.6288 25.5214 17.5166 25.4991 17.5989 24.9261C17.6811 24.3605 17.8158 24.3754 17.898 23.8098C17.9803 23.2442 17.8457 23.2219 17.9279 22.6563C17.9878 22.2322 18.3093 22.0089 18.7356 21.9345C19.3264 21.8229 19.3339 21.8601 19.9322 21.7559C20.523 21.6442 20.5155 21.5996 21.1138 21.488C21.7047 21.3763 21.6673 21.168 22.2656 21.0563C22.3104 21.0489 22.3628 21.0266 22.4076 21.0266C23.0284 20.9968 23.0433 21.2275 23.6641 21.1977C24.2848 21.168 24.2773 21.0712 24.9055 21.034C25.5262 21.0043 25.5262 21.034 26.147 20.9894C26.678 20.9522 26.663 20.7884 27.1865 20.7438C27.7175 20.6991 27.725 20.8257 28.2559 20.7884C28.772 20.7364 28.7795 20.7438 29.303 20.7066C29.8339 20.6619 29.8265 20.647 30.3575 20.6024C30.8884 20.5577 30.8959 20.6991 31.4269 20.6545C31.9579 20.6098 31.9579 20.6247 32.4889 20.5801C33.0198 20.5354 32.9899 20.2303 33.5209 20.1782C34.1342 20.1187 34.1342 20.1559 34.7474 20.0815C35.3607 20.0071 35.3906 20.275 36.0038 20.2005C36.6171 20.1261 36.5797 19.8136 37.1929 19.7392C37.2453 19.7317 37.3201 19.7392 37.3724 19.7392C37.9857 19.7615 37.9782 19.8954 38.5914 19.9178C39.2047 19.9401 39.2122 19.7912 39.8254 19.8061C40.4387 19.821 40.4312 20.0666 41.0444 20.0443C41.6577 20.0294 41.6353 19.8136 42.2485 19.754C42.8618 19.7019 42.8692 19.7987 43.475 19.7466C44.0808 19.6945 44.0808 19.6275 44.6865 19.5754C44.7239 19.5754 44.7688 19.8657 44.7987 19.8657C45.4194 19.8731 45.4194 19.8582 46.0402 19.8657C46.6609 19.8731 46.6609 19.8582 47.2816 19.8657C47.9024 19.8731 47.9024 19.7615 48.5306 19.754C49.1438 19.7466 49.1363 19.6201 49.7496 19.5978C50.3628 19.5754 50.3703 19.7019 50.9836 19.6871C51.5968 19.6722 51.5968 19.6498 52.2101 19.6126C52.8233 19.5754 52.8233 19.6201 53.4366 19.5531C54.0498 19.4936 54.0274 19.2703 54.6331 19.2108C55.2464 19.1512 55.2688 19.3596 55.8746 19.2926C56.3831 19.2331 56.8842 19.5457 56.9889 20.0517C57.0413 20.3271 56.8468 20.3717 56.8992 20.647C56.9216 20.7661 57.1983 20.8777 57.1759 20.9968C57.0712 21.5922 57.1235 21.5996 57.0263 22.1949C56.9216 22.7903 56.6449 22.7382 56.5402 23.3335C56.4355 23.9289 56.3906 23.9289 56.3158 24.5242C56.2485 25.1196 56.5252 25.1493 56.4804 25.7447C56.4355 26.3475 56.2635 26.3326 56.2186 26.9354C56.1737 27.5381 56.3532 27.5456 56.3158 28.1484C56.2784 28.7512 56.1588 28.7437 56.1289 29.3465C56.099 29.9493 56.1139 29.9493 56.0915 30.5595C56.0616 31.1623 56.2037 31.1697 56.1737 31.78C56.1737 31.8321 55.9269 31.8618 55.912 31.9139C55.7849 32.5018 55.8222 32.5093 55.6951 33.1046C55.568 33.6925 55.4857 33.6776 55.3586 34.2655C55.2314 34.8534 55.4932 34.9055 55.4034 35.5009C55.3137 36.0813 55.3511 36.0813 55.2913 36.6692C55.2314 37.2571 54.9996 37.2348 54.9398 37.8227C54.8799 38.4106 54.9846 38.418 54.9547 39.0059C54.9248 39.6087 55.0594 39.6013 55.0669 40.2115C55.0744 40.8143 54.7378 40.8143 54.7453 41.4245C54.7528 42.0273 55.0669 42.0273 55.0669 42.6301C55.0669 42.6673 54.9547 42.712 54.9547 42.7566C54.8874 43.3743 54.693 43.3519 54.6257 43.9771C54.5584 44.5947 54.8126 44.6245 54.7378 45.2496C54.6631 45.8747 54.4761 45.8524 54.4088 46.4701C54.3564 46.9389 54.0573 47.244 53.5861 47.2961C52.9878 47.3631 53.0103 47.6087 52.412 47.6756C51.8062 47.7426 51.8062 47.7277 51.2079 47.7947C50.6021 47.8617 50.5872 47.6682 49.9814 47.7277C49.3906 47.7873 49.413 47.9807 48.8222 48.0328C48.2314 48.0849 48.2165 47.9584 47.6256 48.0105C47.0348 48.0626 47.0423 48.2114 46.4515 48.2412C45.8532 48.271 45.8457 48.1742 45.24 48.1817C44.6342 48.1966 44.6417 48.2933 44.0359 48.3082C43.4301 48.3231 43.4376 48.3305 42.8318 48.3454C42.2485 48.3603 42.241 48.271 41.6577 48.2933C41.0744 48.3156 41.0744 48.3975 40.4835 48.4198C39.9002 48.4421 39.8852 48.1891 39.3019 48.1966C38.7111 48.2114 38.7111 48.1445 38.1278 48.1519C37.537 48.1519 37.537 48.1817 36.9461 48.1817C36.3553 48.1817 36.3478 48.1593 35.7645 48.1817C35.1812 48.204 35.1961 48.4793 34.6203 48.524C34.0369 48.5686 34.0369 48.5835 33.4536 48.6356C32.8703 48.6803 32.8628 48.6059 32.2795 48.6579C32.2495 48.6579 32.2047 48.7398 32.1748 48.7324C31.5914 48.7175 31.5914 48.7026 31.0156 48.6952C30.4322 48.6877 30.4397 48.4049 29.8564 48.3975C29.273 48.39 29.2656 48.4421 28.6897 48.457C28.1064 48.4793 28.1139 48.5835 27.5305 48.6356C26.9472 48.6877 26.9397 48.6059 26.3639 48.6505C25.7805 48.7026 25.788 48.7919 25.2047 48.8217C24.6064 48.8514 24.6064 48.7547 24.0006 48.7621C23.4023 48.777 23.4023 48.8961 22.804 48.911C22.2057 48.9259 22.2057 48.9333 21.6 48.9407C21.5925 48.9333 21.585 49.0003 21.5775 49.0003ZM15.7367 46.5817C16.1705 46.991 16.2677 46.7603 16.866 46.7826C17.4643 46.8049 17.4717 46.604 18.07 46.6263C18.6534 46.6487 18.6608 46.6561 19.2442 46.6859C19.835 46.7156 19.835 46.6338 20.4258 46.6635C21.0166 46.6933 21.0017 46.7901 21.5925 46.7975C22.1758 46.8049 22.1758 46.8496 22.7591 46.8347C23.3425 46.8198 23.35 47.0431 23.9333 47.0282C24.5166 47.0133 24.5166 46.8422 25.1 46.8124C25.6758 46.7826 25.6833 46.8049 26.2592 46.7603C26.835 46.7082 26.835 46.6263 27.4109 46.5817C27.9867 46.5296 28.0092 46.7156 28.585 46.671C28.6149 46.671 28.6374 46.5891 28.6748 46.5891C29.2581 46.5966 29.2581 46.6487 29.8339 46.6561C30.4173 46.6635 30.4173 46.6784 31.0006 46.6933C31.5839 46.7008 31.5914 46.7826 32.1748 46.7677C32.7581 46.7454 32.7431 46.4849 33.3265 46.4403C33.9098 46.3956 33.9098 46.4552 34.4931 46.4031C35.0765 46.3584 35.0914 46.5222 35.6673 46.4775C35.6897 46.4775 35.7047 46.4626 35.7271 46.4626C36.3179 46.4552 36.3179 46.3361 36.9087 46.3361C37.4996 46.3361 37.4996 46.284 38.0904 46.2766C38.6812 46.2766 38.6812 46.2319 39.272 46.2245C39.8553 46.2096 39.8628 46.3212 40.4461 46.3063C41.0295 46.284 41.0295 46.2691 41.6128 46.2468C42.1961 46.2245 42.1887 46.031 42.7795 46.0161C43.3703 46.0012 43.3778 46.2096 43.9686 46.2022C44.5594 46.1873 44.5594 46.1873 45.1577 46.1724C45.7485 46.1575 45.756 46.2245 46.3543 46.1947C46.9301 46.1649 46.9077 45.8375 47.4836 45.7854C48.0594 45.7333 48.0893 46.031 48.6652 45.9789C49.241 45.9268 49.2336 45.8524 49.8094 45.8003C50.2731 45.7556 50.288 45.8747 50.7517 45.8226C51.2154 45.7705 51.2004 45.6291 51.6641 45.577C52.1278 45.525 52.3522 45.8598 52.6812 45.525C53.0178 45.1826 52.8084 44.9817 52.8607 44.5054C52.9131 44.0292 52.8607 44.0217 52.9205 43.5454C52.9729 43.0692 52.7859 43.0543 52.8084 42.5706C52.8383 41.9678 52.7859 41.9752 52.7859 41.3724C52.7784 40.7696 53.0178 40.7696 53.0103 40.1669C53.0028 39.5641 52.9131 39.5641 52.9056 38.9613C52.9056 38.9241 52.928 38.8943 52.9355 38.8571C52.9953 38.2543 52.8383 38.232 52.8981 37.6292C52.9579 37.019 53.0851 37.0339 53.1524 36.4311C53.2122 35.8209 53.2197 35.8283 53.2795 35.2181C53.287 35.1809 53.272 35.1437 53.2795 35.1064C53.4066 34.5185 53.5413 34.5483 53.6684 33.9679C53.7955 33.38 53.8105 33.3874 53.9376 32.7995C54.0648 32.2116 53.803 32.1669 53.8778 31.5716C53.9526 30.9837 53.9526 30.9911 53.9825 30.3958C54.0124 29.8005 54.2816 29.8153 54.3041 29.22C54.334 28.6246 54.0049 28.6098 54.0423 28.0144C54.0797 27.4042 54.0947 27.4042 54.1395 26.7865C54.1844 26.1763 54.319 26.1837 54.3639 25.5735C54.4088 24.9633 54.2592 24.9484 54.3041 24.3382C54.3041 24.3084 54.5135 24.2935 54.5135 24.2563C54.5957 23.7726 54.4163 23.7428 54.4985 23.2666C54.5808 22.7828 54.678 22.8052 54.7678 22.3215C54.85 21.8377 55.3137 21.7559 54.9173 21.4656C54.3863 21.0787 54.319 21.2573 53.6609 21.3243C53.0028 21.3912 53.0103 21.421 52.3522 21.4731C51.881 21.5103 51.8885 21.5103 51.4098 21.5252C50.9387 21.5401 50.9387 21.674 50.4675 21.6889C49.9889 21.7038 49.9964 21.8229 49.5177 21.8377C49.0391 21.8526 49.0391 21.741 48.5605 21.741C47.9398 21.7484 47.9398 21.7708 47.319 21.7559C46.6983 21.7484 46.6983 21.6815 46.0776 21.674C45.4568 21.6666 45.4643 21.8601 44.8436 21.8824C44.2303 21.9047 44.2229 21.7261 43.6171 21.7856C43.0038 21.8377 43.0113 21.9047 42.3981 21.9568C41.7848 22.0089 41.7699 21.808 41.1566 21.8601C41.1192 21.8675 41.0893 22.1428 41.0444 22.1428C40.4312 22.1205 40.4312 22.1801 39.8254 22.1577C39.2122 22.1354 39.2271 21.8601 38.6139 21.8377C38.0006 21.8154 37.9931 21.7559 37.3799 21.7782C36.7592 21.7931 36.7816 22.0759 36.1758 22.1503C35.5701 22.2247 35.5476 22.0535 34.9419 22.128C34.3361 22.2024 34.3585 22.3959 33.7528 22.4554C33.2218 22.5075 33.2068 22.3735 32.6758 22.4108C32.1448 22.4554 32.1448 22.4703 31.6139 22.5149C31.0829 22.5596 31.0904 22.6935 30.5594 22.7382C30.0284 22.7828 30.006 22.5373 29.475 22.5819C28.944 22.6266 28.944 22.6638 28.413 22.7084C27.8745 22.7531 27.8745 22.6712 27.3361 22.7159C26.7976 22.7605 26.82 23.0656 26.2891 23.1028C25.6758 23.14 25.6758 23.14 25.0626 23.1773C24.4493 23.207 24.4344 22.9763 23.8211 23.0135C23.2079 23.0507 23.2153 23.1475 22.6021 23.2145C22.1309 23.2666 22.1609 23.4005 21.6972 23.4824C21.2335 23.5642 21.1737 23.2442 20.7025 23.3261C20.2239 23.4154 20.2314 23.4228 19.9023 23.7652C19.5732 24.1 19.7677 24.1224 19.7004 24.5838C19.6331 25.0451 19.4386 25.0154 19.3713 25.4768C19.304 25.9382 19.5583 25.9754 19.491 26.4368C19.4835 26.4814 19.2891 26.4889 19.2741 26.5335C19.1096 27.0991 19.1096 27.1065 18.945 27.6721C18.7805 28.2451 19.0123 28.3121 18.8478 28.8777C18.6833 29.4507 18.6235 29.4209 18.5113 30.0014C18.3916 30.5818 18.242 30.5521 18.1747 31.14C18.1074 31.7279 18.3093 31.7502 18.242 32.3381C18.1747 32.926 18.0476 32.9111 17.9803 33.5065C17.9728 33.5734 18.0775 33.6776 18.0551 33.7446C17.8756 34.3102 17.7933 34.2879 17.6138 34.8534C17.4343 35.419 17.5241 35.4562 17.3446 36.0218C17.1651 36.5874 17.1352 36.5725 17.0006 37.1529C16.8585 37.726 16.8061 37.7111 16.7089 38.2915C16.6117 38.8794 16.694 38.8943 16.5967 39.4748C16.4995 40.0627 16.2153 40.018 16.1405 40.6059C16.0732 41.1045 16.0433 41.1045 15.991 41.6106C15.9461 42.1092 15.9685 42.1166 15.9237 42.6152C15.8788 43.1138 15.8713 43.1138 15.8264 43.6199C15.7816 44.1185 16.0284 44.1482 15.9835 44.6468C15.9386 45.1529 16.0433 45.1975 15.8937 45.6812C15.7517 46.1724 15.3702 46.2319 15.7367 46.5817Z" fill="#023866"/>
<path d="M59.7635 25.3803L59.1801 28.997L58.9333 32.6434L58.6716 36.2899L58.4173 39.9364L57.8639 43.5605L57.4899 47.1921L57.0637 50.6823L53.6833 51.0172L50.1833 51.5902L46.6235 51.5009L43.1085 51.9623L39.5636 51.873L36.0262 52.0814L32.4963 52.4312L28.9589 52.5949L25.414 52.5205L21.8766 52.3567L18.3168 52.2898L18.8178 48.6731L19.117 45.0489L19.8125 41.4843L20.4631 37.9122L21.2858 34.3774L22.0636 30.8351L22.6693 27.3151L26.3414 27.0844L30.0134 26.3775L33.7452 26.2063L37.4472 25.7375L41.194 25.8342L44.9034 25.5068L48.6277 25.2686L52.3521 25.0975L56.0765 24.8073L59.8083 24.9412L59.7635 25.3803Z" fill="#C8E3FA"/>
<path d="M29.004 53.7333C28.4057 53.7407 28.4057 53.4207 27.7999 53.4058C27.1942 53.3909 27.1942 53.3984 26.5959 53.3909C25.9901 53.3761 25.9976 53.3984 25.3918 53.3761C24.801 53.3537 24.786 53.6514 24.1952 53.6216C23.6044 53.5919 23.5969 53.6216 23.0061 53.5919C22.4153 53.5621 22.4228 53.2644 21.832 53.2421C21.2412 53.2198 21.2337 53.5249 20.6504 53.5175C20.0595 53.5026 20.067 53.3389 19.4762 53.324C18.8854 53.3091 18.8854 53.2049 18.3021 53.1975C18.0179 53.19 17.7711 53.1305 17.5841 52.9147C17.3971 52.6989 17.442 52.4533 17.4794 52.1705C17.5617 51.5677 17.4495 51.5528 17.5318 50.95C17.614 50.3473 17.5916 50.3473 17.6738 49.7445C17.7561 49.1417 17.5991 49.1268 17.6664 48.5166C17.7337 47.9212 17.8758 47.9361 17.9281 47.3482C17.9805 46.7529 17.9057 46.7454 17.9506 46.1501C18.0029 45.5547 17.9506 45.5473 17.9954 44.952C17.9954 44.9148 18.2347 44.9147 18.2422 44.8775C18.3544 44.2822 18.1525 44.245 18.2721 43.6496C18.3843 43.0543 18.3394 43.0469 18.4591 42.4515C18.5713 41.8562 18.7732 41.8934 18.8854 41.298C18.9976 40.7027 18.8405 40.6804 18.9452 40.085C19.0574 39.4897 19.2743 39.5343 19.3865 38.939C19.4986 38.3437 19.3491 38.3213 19.4687 37.726C19.5959 37.1232 19.7305 37.1604 19.8726 36.5576C20.0147 35.9623 19.91 35.94 20.0521 35.3372C20.1942 34.7418 20.3437 34.7716 20.4858 34.1762C20.6204 33.5883 20.4783 33.5586 20.613 32.9707C20.7401 32.3828 20.77 32.3902 20.8971 31.7949C21.0243 31.207 20.8672 31.1772 20.9869 30.5819C21.0991 30.0088 21.316 30.0461 21.4132 29.4656C21.5104 28.8851 21.4356 28.8703 21.5328 28.2972C21.6301 27.7168 21.4281 27.687 21.5254 27.1065C21.6076 26.6452 22.1536 26.2731 22.6172 26.2433C23.2155 26.2061 23.2155 26.1912 23.8138 26.154C24.4121 26.1168 24.4196 26.1466 25.0179 26.1094C25.6162 26.0721 25.6237 26.1242 26.2219 26.0498C26.8277 25.9754 26.8053 25.8638 27.411 25.7521C28.0168 25.6331 28.0243 25.6777 28.6226 25.5661C29.2284 25.447 29.2209 25.4098 29.8192 25.2908C29.864 25.2833 29.9388 25.4321 29.9837 25.4321C30.597 25.4024 30.597 25.4098 31.2102 25.3875C31.8235 25.3577 31.8235 25.261 32.4367 25.2312C33.05 25.2015 33.0649 25.4098 33.6782 25.3577C34.2914 25.3056 34.2914 25.2759 34.9047 25.2015C35.5179 25.127 35.5029 25.0303 36.1162 24.9559C36.7294 24.8815 36.722 24.8442 37.3352 24.7698C37.3876 24.7624 37.4324 24.6433 37.4848 24.6433C38.098 24.6582 38.098 24.7401 38.7113 24.7549C39.3245 24.7698 39.332 24.5987 39.9453 24.6136C40.5585 24.6284 40.551 24.6656 41.1643 24.6508C41.7775 24.6284 41.785 24.874 42.3983 24.8145C43.0115 24.7624 43.004 24.7177 43.6173 24.6656C44.2305 24.6136 44.2305 24.6656 44.8438 24.621C45.4645 24.5763 45.4645 24.6136 46.0927 24.5763C46.7209 24.5391 46.7134 24.4201 47.3342 24.3829C47.9624 24.3456 47.9624 24.3605 48.5831 24.3233C49.2038 24.2861 49.2113 24.3531 49.832 24.3233C50.4528 24.2936 50.4528 24.301 51.081 24.2712C51.7092 24.2415 51.6867 23.981 52.3149 23.9363C52.9282 23.8991 52.9282 23.9066 53.5414 23.8619C54.1547 23.8098 54.1697 23.981 54.7829 23.9363C55.3962 23.8843 55.3812 23.6908 56.0019 23.6461C56.0393 23.6461 56.0917 23.7801 56.1291 23.7801C56.7498 23.8024 56.7573 23.6759 57.378 23.6982C57.9987 23.7205 57.9987 23.8098 58.6194 23.8396C59.2402 23.8619 59.2477 23.7577 59.8684 23.7801C60.1451 23.7875 60.3769 24.0926 60.5564 24.301C60.7359 24.5094 61.0051 24.7698 60.9752 25.0452C60.9528 25.261 60.893 25.261 60.878 25.4768C60.878 25.4991 60.6237 25.4917 60.6237 25.514C60.5265 26.1094 60.5489 26.1094 60.4592 26.7047C60.362 27.3 60.4143 27.3075 60.3171 27.9028C60.2199 28.4982 60.1825 28.4982 60.1152 29.0935C60.0479 29.6368 60.0853 29.6442 60.0479 30.1875C60.0105 30.7307 60.0254 30.7307 59.988 31.274C59.9506 31.8172 59.988 31.8246 59.9506 32.3679C59.9133 32.9111 59.8908 32.9111 59.8534 33.4544C59.816 33.9976 59.9806 34.0125 59.9432 34.5558C59.9058 35.099 59.7487 35.0916 59.7113 35.6348C59.6739 36.1781 59.7861 36.1855 59.7487 36.7288C59.7113 37.272 59.7263 37.2795 59.6889 37.8227C59.6515 38.366 59.4795 38.3585 59.4421 38.9018C59.4047 39.445 59.6216 39.4599 59.5767 40.0106C59.5767 40.0404 59.6216 40.085 59.6141 40.1074C59.5244 40.7101 59.2626 40.6729 59.1729 41.2757C59.0831 41.8785 59.3224 41.9157 59.2327 42.5185C59.143 43.1213 58.956 43.0915 58.8812 43.7017C58.8064 44.2971 58.7765 44.2971 58.7092 44.8924C58.6494 45.4878 58.8363 45.5101 58.7765 46.1129C58.7167 46.7082 58.44 46.6859 58.3727 47.2812C58.3053 47.8691 58.612 47.8989 58.5447 48.4868C58.4699 49.0747 58.1333 49.0301 58.0586 49.618C57.9838 50.2059 58.1558 50.2207 58.081 50.8086C58.0212 51.2775 57.6547 51.6272 57.191 51.6719C56.6301 51.724 56.6451 51.91 56.0842 51.9621C55.5233 52.0142 55.5158 51.9845 54.9549 52.0365C54.394 52.0886 54.3716 51.9026 53.8107 51.977C53.2348 52.0514 53.2199 51.977 52.6515 52.0663C52.0756 52.1631 52.128 52.4458 51.5521 52.5426C50.9763 52.6393 50.9239 52.3119 50.3481 52.4086C50.2882 52.4161 50.2508 52.6021 50.191 52.6021C49.6152 52.5872 49.6152 52.431 49.0393 52.4161C48.456 52.4012 48.456 52.5872 47.8726 52.5724C47.2893 52.5575 47.2893 52.4235 46.7134 52.4533C46.1376 52.483 46.1451 52.5724 45.5692 52.6468C44.9934 52.7212 44.9784 52.5724 44.4025 52.6468C43.8267 52.7212 43.8566 52.9221 43.2807 52.9965C43.2284 53.004 43.1686 53.1007 43.1162 53.1007C42.5329 53.0858 42.5329 53.071 41.9495 53.0635C41.3662 53.0486 41.3737 52.7807 40.7904 52.7658C40.207 52.751 40.1995 52.7063 39.6162 52.7137C39.0329 52.7212 39.0254 52.7435 38.4495 52.7807C37.8662 52.8179 37.8812 53.0858 37.2978 53.123C36.7145 53.1603 36.707 52.9965 36.1237 53.0486C35.5403 53.0933 35.5403 53.123 34.9645 53.1826C34.3811 53.2421 34.3811 53.2272 33.7978 53.2868C33.2145 53.3463 33.2294 53.4803 32.6461 53.5249C32.0478 53.5696 32.0403 53.3686 31.442 53.3984C30.8438 53.4282 30.8213 53.2942 30.223 53.3761C29.5724 53.443 29.6098 53.7258 29.004 53.7333ZM19.5734 51.2254C19.9548 51.7017 20.067 51.4859 20.6728 51.5007C21.2786 51.5156 21.2786 51.4933 21.8843 51.5156C22.4751 51.5379 22.4751 51.5305 23.0734 51.5603C23.6717 51.59 23.6792 51.2849 24.2775 51.3147C24.8758 51.3445 24.8683 51.3221 25.4666 51.3445C26.0499 51.3668 26.0425 51.6496 26.6258 51.6645C27.2091 51.6793 27.2166 51.3817 27.8074 51.3891C28.3908 51.404 28.3908 51.59 28.9741 51.5826C29.5499 51.5752 29.5574 51.6645 30.1333 51.6347C30.7091 51.6049 30.7091 51.5528 31.285 51.5231C31.8608 51.4933 31.8758 51.6347 32.4517 51.59C33.035 51.5454 33.02 51.4189 33.6034 51.3593C34.1867 51.2998 34.1792 51.2775 34.7626 51.2179C35.3459 51.1584 35.3235 50.9724 35.9068 50.9277C36.4976 50.8831 36.5126 51.0542 37.1109 51.017C37.7091 50.9798 37.7017 50.9054 38.3 50.8682C38.8983 50.831 38.8908 50.7789 39.4891 50.7417C39.519 50.7417 39.5489 50.9724 39.5788 50.9724C40.1547 50.9873 40.1621 50.7789 40.738 50.7938C41.3139 50.8086 41.3213 50.764 41.8972 50.7714C42.473 50.7863 42.473 51.0245 43.0564 50.9947C43.6322 50.9649 43.6098 50.764 44.1857 50.6896C44.7615 50.6152 44.7914 50.8384 45.3598 50.764C45.9282 50.6896 45.9132 50.5556 46.4891 50.4812C46.5414 50.4738 46.5938 50.6003 46.6461 50.6003C47.222 50.6152 47.222 50.511 47.7978 50.5259C48.3737 50.5407 48.3737 50.697 48.9496 50.7119C49.5254 50.7268 49.5329 50.6449 50.1087 50.6077C50.6846 50.5705 50.6846 50.5407 51.253 50.444C51.8214 50.3473 51.7914 50.1761 52.3598 50.0868C52.9282 49.99 52.9581 50.2059 53.534 50.1314C54.1921 50.0496 54.1846 49.9901 54.8427 49.9231C55.5009 49.8561 55.5233 50.0049 56.0543 49.618C56.4207 49.3501 56.144 49.298 56.1964 48.8515C56.2487 48.4049 56.2412 48.3975 56.2936 47.951C56.3459 47.5045 56.3833 47.5045 56.4357 47.058C56.503 46.4552 56.5105 46.4552 56.5778 45.8524C56.6376 45.2496 56.5703 45.2422 56.6301 44.6394C56.69 44.0366 56.7199 44.0366 56.7947 43.4338C56.8694 42.8311 56.847 42.8236 56.9368 42.2208C57.0265 41.618 57.191 41.6404 57.2808 41.0376C57.3705 40.4348 57.4004 40.4348 57.4752 39.8246C57.535 39.2813 57.4154 39.2739 57.4528 38.7306C57.4902 38.1874 57.6771 38.2023 57.7145 37.659C57.7519 37.1158 57.7444 37.1158 57.7893 36.5651C57.8267 36.0218 57.7295 36.0144 57.7669 35.4711C57.8043 34.9279 57.7744 34.9204 57.8118 34.3772C57.8491 33.8339 57.7295 33.8265 57.7669 33.2758C57.8043 32.7325 57.8865 32.74 57.9239 32.1893C57.9613 31.646 57.7893 31.6312 57.8267 31.0879C57.8641 30.5372 57.8641 30.5447 57.909 29.994C57.9464 29.4433 58.2231 29.4656 58.2605 28.9223C58.2605 28.8926 58.2231 28.8628 58.2306 28.833C58.3128 28.3419 58.3727 28.3568 58.4474 27.8656C58.5297 27.3745 58.5596 27.3819 58.6344 26.8907C58.7167 26.3996 59.0308 26.2061 58.6643 25.8712C58.1932 25.4396 58.0062 25.8191 57.363 25.7968C56.7199 25.7745 56.7199 25.6777 56.0767 25.6852C55.4859 25.7075 55.4784 25.7373 54.8652 25.7894C54.2519 25.834 54.2744 26.1093 53.6611 26.1614C53.0479 26.2135 53.0479 26.1987 52.4346 26.2359C51.8064 26.2731 51.7989 26.0945 51.1707 26.1242C50.5425 26.154 50.55 26.3475 49.9293 26.3773C49.3011 26.407 49.2936 26.2656 48.6728 26.2954C48.0521 26.3326 48.0671 26.4591 47.4463 26.4963C46.8256 26.5335 46.8256 26.4442 46.2049 26.4814C45.5842 26.5186 45.5916 26.6154 44.9784 26.6675C44.3651 26.7121 44.3502 26.5261 43.7369 26.5782C43.1237 26.6303 43.1386 26.8089 42.5254 26.8684C41.9121 26.9205 41.9047 26.861 41.2914 26.9131C41.254 26.9205 41.2092 26.6749 41.1718 26.6675C40.5585 26.6526 40.5585 26.6749 39.9527 26.66C39.3395 26.6452 39.3395 26.6973 38.7262 26.6824C38.113 26.6675 38.1055 26.608 37.4997 26.6377C36.894 26.6675 36.8865 26.7196 36.2882 26.794C35.6824 26.8684 35.6824 26.8833 35.0767 26.9652C34.4709 27.0396 34.4784 27.0768 33.8726 27.1512C33.8427 27.1512 33.8203 27.1363 33.7903 27.1363C33.1846 27.1661 33.192 27.3298 32.5788 27.3521C31.973 27.3819 31.9655 27.2256 31.3523 27.2554C30.7465 27.2852 30.7465 27.3521 30.1408 27.4191C29.535 27.4935 29.5499 27.5531 28.9442 27.6647C28.3459 27.7838 28.3085 27.6126 27.7102 27.7317C27.1119 27.8507 27.1493 28.0591 26.551 28.1707C26.5061 28.1782 26.4538 28.2377 26.4089 28.2377C25.9303 28.2675 25.9153 28.007 25.4367 28.0368C24.9581 28.0665 24.973 28.3121 24.4944 28.3419C24.0157 28.3717 23.8736 27.9177 23.5147 28.2377C23.1632 28.5428 23.3875 28.6917 23.3053 29.153C23.223 29.607 23.4175 29.6442 23.3352 30.0981C23.2529 30.5521 22.9912 30.5074 22.9014 30.9614C22.7818 31.5642 23.0809 31.6237 22.9463 32.2191C22.8117 32.8144 22.4826 32.7474 22.348 33.3428C22.2134 33.9381 22.3854 33.9753 22.2508 34.5781C22.1162 35.1734 22.1087 35.166 21.9741 35.7614C21.8395 36.3567 22.0115 36.3939 21.8768 36.9892C21.7422 37.5846 21.6899 37.5697 21.5702 38.165C21.4506 38.7455 21.2935 38.7157 21.1888 39.3036C21.0841 39.8915 20.9869 39.8767 20.8747 40.4646C20.77 41.0525 21.0617 41.1046 20.9495 41.6925C20.8373 42.2804 20.5083 42.2208 20.3961 42.8013C20.2839 43.3892 20.4634 43.4264 20.3437 44.0143C20.2315 44.6022 20.0446 44.5724 19.9623 45.1678C19.8801 45.7557 20.0969 45.7854 20.0446 46.3808C19.9922 46.9761 19.9025 46.9687 19.8501 47.564C19.7978 48.1594 19.8651 48.1668 19.7978 48.7622C19.723 49.4021 19.6781 49.3798 19.4762 49.9901C19.2967 50.5928 19.1696 50.7193 19.5734 51.2254Z" fill="#023866"/>
<path fill-rule="evenodd" clip-rule="evenodd" d="M63.2562 33.6033L63.7573 29.9792L63.6526 29.4434L62.9146 29.5068L59.9132 29.4434L56.1889 29.5699L52.472 30.0238L52.2314 30.0407L48.7476 30.0685L46.2888 30.1618L45.0083 30.0982L43.1487 30.2434L41.2839 30.2768L37.5671 30.5968L33.8576 30.9466L30.1408 31.2889L28.3465 31.6483L26.4164 31.8173L26.6076 32.0176L26.0948 35.4489L25.0029 38.9391L24.4719 42.5335L23.8587 46.113L22.9463 49.633L22.5948 53.2571L22.0414 56.978L25.7209 56.9334H29.2583L32.7957 56.8664L36.3331 56.7027L39.878 56.9631L43.4079 56.6506L46.9528 56.6357L50.4677 56.0701L54.0051 55.951L57.535 55.7203L61.1098 55.4748L61.5959 51.806L61.9026 48.1669L62.3064 44.5279L62.4261 40.8665L62.9047 37.2424L63.2562 33.6033Z" fill="white"/>
<path fill-rule="evenodd" clip-rule="evenodd" d="M42.8559 47.552C42.983 47.62 43.087 47.6757 43.2358 47.6757C43.303 47.6757 43.3815 47.6961 43.4585 47.7162C43.5788 47.7474 43.6955 47.7777 43.7593 47.7278C43.9888 47.5979 44.0927 47.5305 44.2038 47.4583C44.3028 47.3941 44.4076 47.3261 44.6119 47.2069C44.8306 47.0831 44.9181 46.9877 45.0067 46.891C45.0939 46.796 45.1821 46.6998 45.3972 46.5744C45.6197 46.4484 45.7143 46.3635 45.8112 46.2766C45.9032 46.1941 45.9972 46.1097 46.2048 45.9864C46.4241 45.8585 46.5478 45.82 46.6717 45.7815L46.6717 45.7815C46.7928 45.7437 46.914 45.706 47.1247 45.5846C47.1746 45.5548 47.2111 45.5118 47.2477 45.4688C47.266 45.4473 47.2843 45.4258 47.3042 45.406C47.5247 45.1828 47.635 45.0731 47.7453 44.9634L47.7455 44.9632L47.7456 44.963C47.8559 44.8533 47.9662 44.7436 48.1867 44.5204C48.4073 44.2972 48.5083 44.1781 48.6092 44.059C48.7102 43.94 48.8112 43.8209 49.0318 43.5976C49.2801 43.3464 49.4052 43.253 49.5499 43.1451C49.6622 43.0613 49.7863 42.9687 49.989 42.7865C50.1903 42.6024 50.2958 42.4883 50.3904 42.386C50.5138 42.2526 50.6188 42.139 50.894 41.9158C50.9223 41.8928 50.9493 41.8716 50.9752 41.8519C51.0053 41.9238 51.0439 42.0053 51.0958 42.1019C51.2478 42.385 51.3429 42.5064 51.4425 42.6336C51.5341 42.7505 51.6295 42.8723 51.7763 43.1289C51.9208 43.3795 51.9423 43.5371 51.9636 43.6928C51.9853 43.8515 52.0068 44.0084 52.1578 44.26C52.2977 44.4933 52.4082 44.5963 52.513 44.6939C52.6321 44.8049 52.7439 44.9091 52.8832 45.1903C53.0783 45.5842 53.1197 45.6927 53.2179 45.9506C53.2515 46.0386 53.2917 46.144 53.3469 46.2842C53.4553 46.5595 53.5039 46.6991 53.5525 46.8386C53.6011 46.9781 53.6497 47.1177 53.7582 47.393C53.772 47.424 53.765 47.4694 53.758 47.5151C53.7498 47.5681 53.7416 47.6215 53.7657 47.6535C53.9423 47.9077 54.0792 48.0004 54.2173 48.0939C54.3541 48.1865 54.492 48.2798 54.6706 48.5316C54.8226 48.7459 54.9076 48.8708 54.9828 48.9815C55.0853 49.1321 55.1698 49.2563 55.3811 49.5437C55.55 49.7776 55.5873 49.9307 55.624 50.0816C55.662 50.2378 55.6995 50.3916 55.8821 50.6302C56.0545 50.8553 56.1993 50.9346 56.338 51.0105C56.4882 51.0928 56.6312 51.1711 56.7945 51.4265C56.9562 51.6831 56.9514 51.853 56.9465 52.0295C56.9418 52.1959 56.937 52.3682 57.0712 52.6246C57.2127 52.8948 57.2916 53.0209 57.372 53.1494C57.4487 53.2722 57.5268 53.397 57.662 53.6516C57.6817 53.6868 57.7409 53.7015 57.8001 53.7161C57.8533 53.7293 57.9065 53.7425 57.9313 53.7706C58.1379 54.0067 58.2506 54.1123 58.3655 54.2199C58.4662 54.3143 58.5687 54.4103 58.7379 54.5975C58.7115 54.6033 58.6861 54.6092 58.6606 54.615C58.5316 54.6448 58.4026 54.6746 58.1409 54.6932C57.8685 54.7087 57.7399 54.7282 57.6054 54.7486C57.4814 54.7674 57.3525 54.7869 57.1013 54.8048C56.8433 54.8234 56.7143 54.8513 56.5853 54.8792C56.4563 54.9071 56.3273 54.935 56.0693 54.9536L56.0639 54.954L56.0612 54.9542L56.058 54.9544C55.5532 54.9908 55.5494 54.9911 55.0298 55.0281C54.7623 55.0471 54.6295 55.0117 54.4938 54.9755C54.3639 54.9409 54.2313 54.9055 53.9753 54.9164C53.6829 54.9312 53.537 54.9823 53.3927 55.033C53.2453 55.0847 53.0996 55.1358 52.8011 55.1471C52.5057 55.1583 52.3561 55.1211 52.2066 55.0839C52.057 55.0467 51.9074 55.0094 51.612 55.0206C51.2979 55.0286 51.1529 55.0388 50.9938 55.05L50.9937 55.05H50.9937C50.8573 55.0595 50.7105 55.0698 50.4379 55.0801C50.4154 55.0839 50.3967 55.095 50.378 55.1062C50.3593 55.1174 50.3406 55.1285 50.3182 55.1322C50.0298 55.177 49.8764 55.147 49.7238 55.1172C49.5717 55.0875 49.4203 55.0579 49.1366 55.1025C48.8551 55.1467 48.7149 55.18 48.5751 55.2131C48.4326 55.2469 48.2905 55.2806 47.9998 55.3257C47.8757 55.3469 47.779 55.3641 47.6977 55.3786L47.6975 55.3786C47.4068 55.4304 47.313 55.4471 46.8631 55.482C46.5963 55.5027 46.4547 55.5457 46.3223 55.586C46.169 55.6326 46.0279 55.6755 45.7188 55.6755C45.4262 55.6755 45.2804 55.6867 45.135 55.6979C44.9906 55.7091 44.8467 55.7201 44.5597 55.7201C44.2837 55.7237 44.14 55.7358 44.0018 55.7475H44.0017H44.0017C43.8515 55.7601 43.7078 55.7722 43.4079 55.7722C43.3999 55.7742 43.393 55.7762 43.3865 55.7781C43.3689 55.7831 43.3551 55.7871 43.3332 55.7871C43.0452 55.8132 42.8957 55.7573 42.7461 55.7015C42.5965 55.6457 42.4469 55.5899 42.159 55.616C41.8711 55.642 41.7309 55.6885 41.5906 55.735C41.4504 55.7815 41.3102 55.828 41.0222 55.8541C40.7648 55.8774 40.6225 55.9111 40.4923 55.9419C40.3313 55.98 40.189 56.0137 39.8705 56.0178C39.5392 56.022 39.3961 55.9927 39.2287 55.9583C39.1014 55.9322 38.9601 55.9031 38.7113 55.8839C38.4183 55.8614 38.2744 55.8259 38.1307 55.7903C37.9883 55.7552 37.8462 55.72 37.5596 55.6978C37.2717 55.6755 37.1296 55.642 36.9875 55.6085C36.8454 55.575 36.7033 55.5415 36.4154 55.5192C36.3919 55.5192 36.3644 55.5314 36.3381 55.5431C36.3141 55.5537 36.2912 55.5639 36.2733 55.5639C35.9817 55.5787 35.8358 55.5955 35.69 55.6122L35.69 55.6122C35.5441 55.629 35.3983 55.6457 35.1066 55.6606C34.815 55.6755 34.6673 55.6606 34.5196 55.6457C34.3719 55.6308 34.2242 55.616 33.9325 55.6308C33.659 55.6448 33.5138 55.6587 33.3765 55.6719L33.3764 55.6719C33.2209 55.6869 33.0756 55.7008 32.7658 55.7127C32.473 55.7238 32.3271 55.8043 32.1835 55.8836C32.0373 55.9644 31.8934 56.0438 31.5992 56.0476C31.2715 56.0559 31.1255 56.0549 30.9571 56.0537H30.9571H30.9571H30.957H30.957C30.8256 56.0528 30.6806 56.0518 30.425 56.055C30.1333 56.0587 29.9856 55.9992 29.8379 55.9397C29.6902 55.8801 29.5425 55.8206 29.2509 55.8243C28.9555 55.8243 28.8077 55.8113 28.66 55.7983C28.5123 55.7853 28.3646 55.7722 28.0692 55.7722C27.7738 55.7722 27.6261 55.8094 27.4784 55.8467C27.3307 55.8839 27.183 55.9211 26.8876 55.9211C26.5891 55.9211 26.4414 55.9667 26.2922 56.0127C26.146 56.0578 25.9983 56.1034 25.706 56.1071C25.4071 56.1107 25.2521 56.0297 25.1016 55.9456C25.1436 55.8908 25.1818 55.8461 25.2198 55.8016C25.3107 55.6951 25.4009 55.5894 25.541 55.3483C25.6884 55.0947 25.7764 54.9888 25.8705 54.8755C25.9531 54.7761 26.0404 54.671 26.1767 54.4553C26.3153 54.2375 26.3508 54.1047 26.3854 53.9748C26.4218 53.8385 26.4573 53.7053 26.6105 53.4804C26.7429 53.2861 26.7947 53.1588 26.8418 53.0431C26.9012 52.8974 26.953 52.7701 27.1489 52.5502C27.3397 52.328 27.4732 52.2703 27.62 52.2069C27.7436 52.1534 27.8767 52.0959 28.0613 51.9325C28.2633 51.7539 28.3437 51.6405 28.4241 51.527C28.5044 51.4135 28.5848 51.3 28.7868 51.1214C28.8175 51.0942 28.8777 51.0903 28.9391 51.0863C29.0124 51.0815 29.0873 51.0766 29.1158 51.0321C29.2617 50.8014 29.2897 50.6581 29.3177 50.5149C29.3458 50.3716 29.3738 50.2284 29.5197 49.9977C29.6721 49.7566 29.7918 49.674 29.9173 49.5874C30.0319 49.5083 30.1514 49.4259 30.3049 49.2163C30.4483 49.0239 30.5143 48.9069 30.5747 48.8001C30.6497 48.6673 30.7159 48.5501 30.9107 48.3233C31.0803 48.1258 31.175 48.0288 31.2671 47.9345C31.3659 47.8333 31.4617 47.7352 31.6436 47.5196C31.6549 47.5083 31.6888 47.5103 31.7216 47.5121C31.7542 47.514 31.7857 47.5158 31.7932 47.5047C31.9502 47.2814 32.0007 47.1493 32.0512 47.0172C32.1017 46.8851 32.1522 46.753 32.3092 46.5298C32.4629 46.3113 32.502 46.1713 32.5404 46.0338C32.5805 45.8902 32.6198 45.7494 32.7878 45.5252C32.9578 45.2996 33.0973 45.2298 33.238 45.1593C33.3759 45.0902 33.515 45.0206 33.6853 44.8033C33.8573 44.5838 33.9059 44.4442 33.9545 44.3047C34.0031 44.1652 34.0517 44.0256 34.2237 43.8061C34.2408 43.7857 34.2642 43.7746 34.2874 43.7636C34.3149 43.7506 34.3421 43.7376 34.3584 43.7094C34.493 43.4601 34.5378 43.3242 34.5827 43.1884C34.6276 43.0526 34.6725 42.9168 34.8071 42.6675C34.9401 42.4212 35.033 42.3111 35.1253 42.2026C35.2941 42.3746 35.3733 42.4836 35.4535 42.5943C35.5423 42.7167 35.6324 42.8409 35.8469 43.0544C35.862 43.0694 35.8542 43.111 35.8467 43.1514C35.8393 43.191 35.8321 43.2294 35.8469 43.2404C36.0862 43.4302 36.2115 43.5195 36.3368 43.6088L36.3368 43.6088C36.462 43.6981 36.5873 43.7874 36.8266 43.9772C37.0659 44.1669 37.2099 44.2302 37.3539 44.2934C37.4978 44.3567 37.6418 44.42 37.8811 44.6097C38.1204 44.7995 38.2494 44.8832 38.3784 44.9669L38.3784 44.9669C38.5075 45.0506 38.6365 45.1344 38.8758 45.3241C38.8976 45.3423 38.9089 45.3693 38.9198 45.3956C38.9313 45.4233 38.9425 45.4503 38.9655 45.4655C39.2048 45.5995 39.2964 45.713 39.3881 45.8265C39.4797 45.9399 39.5713 46.0534 39.8106 46.1874C40.0463 46.3214 40.1959 46.3288 40.3464 46.3362C40.4969 46.3437 40.6483 46.3511 40.8875 46.485C41.1231 46.6153 41.2316 46.7009 41.34 46.7864C41.4484 46.872 41.5569 46.9576 41.7924 47.0878C42.0304 47.2173 42.163 47.2604 42.2941 47.3029C42.4266 47.3459 42.5577 47.3885 42.7946 47.5195C42.8158 47.5305 42.8361 47.5414 42.8559 47.552ZM60.3367 53.746C60.3361 53.6935 60.3388 53.6351 60.3471 53.5695C60.377 53.3313 60.4069 53.2141 60.4368 53.0969C60.4667 52.9797 60.4967 52.8625 60.5266 52.6244C60.5568 52.3839 60.5203 52.2592 60.4835 52.1333C60.4473 52.0099 60.4109 51.8853 60.4368 51.6495C60.4666 51.3536 60.5535 51.2103 60.64 51.0679C60.7274 50.9238 60.8143 50.7806 60.8407 50.4811C60.8669 50.179 60.8293 50.0246 60.7918 49.8708C60.7545 49.7176 60.7173 49.5651 60.7435 49.2681C60.7695 48.9718 60.8085 48.8248 60.8476 48.6776C60.8871 48.529 60.9266 48.3802 60.9529 48.0774C60.9817 47.7868 60.9845 47.6345 60.9871 47.4872C60.99 47.329 60.9928 47.1765 61.0276 46.8644C61.0613 46.563 61.1024 46.4142 61.1435 46.2654L61.1436 46.2654C61.1847 46.1165 61.2258 45.9677 61.2595 45.6663C61.2901 45.3921 61.3238 45.2426 61.355 45.1044C61.3923 44.9388 61.4261 44.7893 61.4464 44.4607C61.4693 44.1538 61.3991 43.9993 61.3276 43.842C61.2587 43.6904 61.1886 43.5362 61.1996 43.2403C61.2109 42.9389 61.2539 42.7882 61.2969 42.6375C61.3399 42.4868 61.3829 42.3361 61.3941 42.0347C61.4053 41.7333 61.4128 41.5826 61.4203 41.4319C61.4277 41.2812 61.4352 41.1305 61.4464 40.8291C61.4464 40.8142 61.4408 40.7975 61.4352 40.7808L61.4352 40.7807C61.4296 40.764 61.424 40.7473 61.424 40.7324C61.4651 40.431 61.4894 40.2803 61.5137 40.1297L61.5138 40.1296L61.5138 40.1294C61.5381 39.9788 61.5624 39.8281 61.6035 39.5268C61.6437 39.2322 61.6893 39.0851 61.7341 38.9405C61.781 38.7892 61.827 38.6406 61.8652 38.3287C61.9114 37.9908 61.9222 37.84 61.9347 37.6665L61.9347 37.6664V37.6664C61.9445 37.5304 61.9553 37.3805 61.9849 37.1157C62.0096 36.8975 62.0262 36.7583 62.0403 36.6401L62.0404 36.6393L62.0405 36.6386C62.0648 36.4352 62.0817 36.2938 62.1195 35.9175C62.1495 35.6155 62.1081 35.4592 62.0669 35.3035C62.0258 35.1485 61.985 34.9941 62.0148 34.6971C62.0498 34.3487 62.072 34.2016 62.0994 34.0203C62.1188 33.8917 62.1408 33.7459 62.1719 33.499C62.2007 33.2587 62.2035 33.1325 62.2062 33.0113C62.209 32.8809 62.2118 32.7563 62.2467 32.5018C62.2803 32.2525 62.3289 32.1334 62.3775 32.0143C62.3862 31.9931 62.3949 31.9718 62.4035 31.9498C62.387 31.9649 62.3696 31.9802 62.3513 31.9959C62.1242 32.189 61.9832 32.2572 61.8458 32.3238C61.7026 32.3931 61.5632 32.4606 61.3342 32.6656C61.0929 32.8861 61.0001 33.0128 60.901 33.1483C60.8127 33.2689 60.7194 33.3965 60.5115 33.6033C60.2871 33.8228 60.16 33.9159 60.0329 34.0089C59.9057 34.1019 59.7786 34.1949 59.5542 34.4145C59.3299 34.634 59.2102 34.7345 59.0906 34.8349C58.9709 34.9354 58.8512 35.0359 58.6269 35.2554C58.6077 35.2745 58.5667 35.2622 58.5253 35.2497C58.4862 35.2379 58.4468 35.226 58.425 35.2405C58.1763 35.4177 58.0805 35.5492 57.985 35.6803C57.888 35.8134 57.7912 35.9461 57.535 36.1261C57.2827 36.306 57.1403 36.3726 56.9962 36.4401C56.8542 36.5066 56.7105 36.5739 56.4581 36.7512C56.164 36.9609 56.0631 37.0731 55.9362 37.2143C55.8469 37.3137 55.7447 37.4274 55.5532 37.5996C55.126 37.9835 55.1051 38.0074 54.7828 38.3753L54.6931 38.4777C54.4907 38.7047 54.3716 38.8056 54.2539 38.9054C54.1323 39.0084 54.0121 39.1102 53.8032 39.3484C53.6023 39.5737 53.4888 39.6801 53.3774 39.7846C53.2606 39.8941 53.1461 40.0015 52.9356 40.2414C52.9159 40.2611 52.8856 40.262 52.856 40.2629C52.8296 40.2638 52.8037 40.2646 52.7861 40.2786C52.6488 40.3899 52.5629 40.4847 52.4992 40.5722C52.5026 40.5938 52.5058 40.6151 52.5089 40.6364C52.5321 40.7931 52.5554 40.9508 52.6962 41.2163C52.8014 41.4097 52.8668 41.5342 52.9217 41.6389C53.019 41.8244 53.0836 41.9475 53.2796 42.2805C53.4289 42.5473 53.5273 42.6638 53.6279 42.783C53.7238 42.8964 53.8217 43.0123 53.9676 43.2628C54.1194 43.5171 54.1796 43.6546 54.2388 43.79C54.2992 43.9281 54.3587 44.0641 54.5135 44.3196C54.5271 44.3398 54.5514 44.3508 54.5753 44.3617C54.6042 44.3749 54.6325 44.3878 54.6407 44.4163C54.7491 44.6879 54.8351 44.8107 54.9211 44.9335C55.0071 45.0563 55.0931 45.1791 55.2016 45.4507C55.3037 45.7064 55.3014 45.8681 55.2992 46.0213C55.2967 46.1934 55.2944 46.3547 55.4409 46.6265C55.6479 47.0107 55.7168 47.1075 55.8762 47.3313C55.9299 47.4067 55.9937 47.4964 56.0766 47.6163C56.2442 47.8589 56.371 47.947 56.5006 48.037C56.6255 48.1238 56.7529 48.2123 56.9217 48.4423C57.1071 48.6975 57.2051 48.8097 57.309 48.9288C57.4021 49.0354 57.4999 49.1475 57.6695 49.3725C57.849 49.6107 57.9518 49.7204 58.0547 49.8302C58.1575 49.94 58.2603 50.0497 58.4398 50.2879C58.4587 50.3104 58.4149 50.3706 58.3706 50.4316C58.327 50.4916 58.2829 50.5522 58.2977 50.5781C58.4307 50.8318 58.5181 50.9492 58.6049 51.0659C58.6939 51.1855 58.7822 51.3043 58.9185 51.5679C59.0874 51.8948 59.171 52.0019 59.2911 52.1559C59.3624 52.2473 59.4466 52.3552 59.5691 52.5353C59.7174 52.7499 59.7731 52.889 59.8243 53.0172C59.8869 53.1735 59.9429 53.3136 60.1524 53.5548C60.2214 53.6342 60.2817 53.6957 60.3367 53.746ZM23.26 55.3037C23.1843 55.4306 23.1346 55.5671 23.1115 55.7043C23.0178 55.5009 23.08 55.3582 23.164 55.1652C23.2234 55.0287 23.2938 54.8671 23.3278 54.6411C23.3748 54.3281 23.4288 54.1699 23.4813 54.0159C23.5374 53.8515 23.5919 53.6919 23.6344 53.3537C23.6804 52.9916 23.6896 52.8497 23.7021 52.6568C23.7099 52.5365 23.719 52.3963 23.7391 52.1704C23.7649 51.8811 23.749 51.7306 23.7333 51.5822C23.7171 51.4291 23.7012 51.2783 23.7316 50.9797C23.7495 50.804 23.76 50.6795 23.7688 50.5758C23.7894 50.3324 23.8003 50.2035 23.8737 49.7965C23.9163 49.5605 23.9292 49.4143 23.9405 49.2854C23.9572 49.0972 23.9705 48.9459 24.0682 48.6058C24.1548 48.3438 24.2269 48.2112 24.2943 48.0873C24.3724 47.9438 24.4441 47.812 24.5244 47.5044C24.6008 47.2076 24.6441 47.0645 24.6881 46.9189C24.7301 46.7798 24.7728 46.6384 24.8459 46.3584C24.8497 46.3435 24.8796 46.3342 24.9095 46.3249C24.9394 46.3156 24.9693 46.3063 24.9731 46.2914C25.0196 46.0068 25.0353 45.8565 25.0504 45.7113C25.067 45.5529 25.083 45.4004 25.1376 45.0858C25.19 44.7844 25.1656 44.6263 25.1413 44.4682C25.117 44.31 25.0927 44.1519 25.1451 43.8505C25.199 43.5442 25.2073 43.3935 25.2159 43.2373C25.2241 43.0899 25.2325 42.9375 25.2797 42.6449C25.328 42.3527 25.4225 42.2168 25.5164 42.0818C25.6114 41.9451 25.7057 41.8095 25.7508 41.5138C25.7957 41.2198 25.777 41.0673 25.7583 40.9147C25.7396 40.7621 25.7209 40.6096 25.7658 40.3156C25.8299 39.8579 25.8531 39.7611 25.9238 39.4666L25.9238 39.4666L25.9239 39.4664C25.944 39.3827 25.9679 39.2831 25.9976 39.1547C26.1323 38.5743 26.1323 38.5743 26.3117 38.0087L26.3117 38.0087C26.3989 37.722 26.4727 37.5883 26.5476 37.4525C26.6204 37.3203 26.6944 37.1862 26.7829 36.9073C26.868 36.6274 26.8652 36.4714 26.8624 36.3167C26.8596 36.1588 26.8568 36.0022 26.9474 35.7166C26.954 35.6938 26.9634 35.6753 26.9725 35.6573L26.9725 35.6573C26.9843 35.6342 26.9956 35.612 26.9998 35.5827C27.0334 35.352 27.0316 35.2348 27.0297 35.1176C27.0278 35.0003 27.026 34.8831 27.0596 34.6524C27.0933 34.4217 27.1793 34.3176 27.2653 34.2134C27.3044 34.1659 27.3436 34.1185 27.3778 34.0591C27.4175 34.0978 27.4606 34.1413 27.5082 34.1912C27.7197 34.4127 27.7674 34.5811 27.8147 34.7482C27.8627 34.9179 27.9104 35.0862 28.129 35.3075C28.34 35.5213 28.5055 35.5687 28.6723 35.6165C28.8365 35.6636 29.0019 35.711 29.2134 35.9177C29.4265 36.1261 29.5106 36.2544 29.5948 36.3828C29.6789 36.5112 29.763 36.6396 29.9762 36.8479C30.1759 37.0466 30.2956 37.1371 30.4109 37.2241C30.5374 37.3196 30.6584 37.4109 30.8736 37.6368C31.0936 37.8671 31.1682 38.0084 31.2454 38.1545C31.3178 38.2916 31.3925 38.4329 31.5916 38.6563C31.7972 38.887 31.8758 39.0247 31.9543 39.1623C32.0328 39.3 32.1113 39.4377 32.317 39.6684C32.4375 39.8035 32.522 39.8997 32.5921 39.9794C32.7612 40.1718 32.8457 40.268 33.1471 40.5837C33.325 40.7733 33.4556 40.8542 33.5803 40.9176C33.4931 41.0635 33.4234 41.1466 33.3534 41.23C33.2646 41.3358 33.1754 41.4421 33.0496 41.6777C32.9292 41.9033 32.9127 42.0504 32.897 42.191C32.8796 42.3473 32.863 42.4955 32.7056 42.7345C32.5858 42.9146 32.5186 43.029 32.4605 43.1276L32.4605 43.1276C32.37 43.2815 32.302 43.3971 32.0923 43.6647C31.9211 43.8833 31.7665 43.9414 31.6139 43.9988C31.4599 44.0567 31.3078 44.1139 31.1425 44.3345C30.9735 44.56 30.9249 44.6952 30.8749 44.8338C30.8277 44.9652 30.7793 45.0996 30.6265 45.3168C30.4533 45.5631 30.3596 45.6622 30.254 45.774C30.1682 45.8649 30.0744 45.9642 29.9235 46.1577C29.7807 46.3408 29.7053 46.4503 29.6383 46.5475L29.6382 46.5475C29.5473 46.6793 29.472 46.7885 29.2654 47.0284C29.0859 47.2368 28.9924 47.3372 28.8989 47.4377L28.8989 47.4377C28.8055 47.5382 28.712 47.6386 28.5325 47.847C28.517 47.8663 28.5577 47.9255 28.5974 47.9833C28.6344 48.037 28.6704 48.0895 28.6596 48.1075C28.5212 48.3213 28.429 48.4186 28.3388 48.5138C28.2437 48.614 28.151 48.7119 28.009 48.9409C27.8497 49.1979 27.7499 49.2799 27.6283 49.3797C27.5386 49.4534 27.4371 49.5368 27.291 49.7074C27.1402 49.8869 27.0785 50.0077 27.0227 50.1169C26.9513 50.2567 26.8896 50.3775 26.6628 50.5781C26.4609 50.7567 26.3544 50.8386 26.2478 50.9204L26.2478 50.9205L26.2477 50.9205C26.1412 51.0023 26.0346 51.0842 25.8327 51.2628C25.8047 51.2872 25.7405 51.2871 25.6756 51.287C25.602 51.2869 25.5275 51.2867 25.5036 51.3223C25.3429 51.5604 25.3167 51.7167 25.2905 51.873C25.2643 52.0293 25.2382 52.1856 25.0774 52.4237C24.921 52.6552 24.8106 52.7566 24.7032 52.8553C24.5897 52.9595 24.4796 53.0607 24.322 53.3093C24.1536 53.5709 24.0957 53.6978 24.0307 53.8404C23.9773 53.9575 23.9191 54.0851 23.791 54.3065C23.6516 54.5475 23.5896 54.6756 23.529 54.8007C23.4661 54.9306 23.4048 55.0573 23.26 55.3037ZM26.4594 30.8605C26.4184 30.8643 26.3744 30.8682 26.3266 30.8722C25.9452 30.9019 25.5862 31.0954 25.4516 31.4526C25.3176 31.8082 25.3022 32.3186 25.5676 32.6022C25.558 32.7014 25.544 32.821 25.519 32.9929C25.4778 33.2727 25.4685 33.4141 25.4591 33.5569C25.4498 33.6988 25.4404 33.842 25.3994 34.1241C25.3622 34.358 25.3494 34.499 25.3382 34.6229C25.3222 34.7985 25.3094 34.9397 25.2348 35.2627C25.1649 35.564 25.0487 35.6869 24.9279 35.8144C24.8161 35.9326 24.7004 36.0549 24.6141 36.3268C24.5244 36.6096 24.5131 36.7622 24.5019 36.9147C24.4907 37.0673 24.4795 37.2199 24.3897 37.5026C24.3 37.7854 24.2701 37.9324 24.2402 38.0794C24.2102 38.2264 24.1803 38.3733 24.0906 38.6561C24.0835 38.6807 24.0664 38.7004 24.0496 38.7197C24.0308 38.7413 24.0123 38.7626 24.0083 38.7901C23.9635 39.0877 23.9167 39.2329 23.87 39.378C23.8232 39.5231 23.7765 39.6682 23.7316 39.9659C23.6867 40.2635 23.6419 40.4087 23.597 40.5538C23.5521 40.6989 23.5073 40.844 23.4624 41.1417C23.4191 41.4288 23.4089 41.5792 23.399 41.7248C23.3883 41.881 23.3781 42.0316 23.3278 42.3398C23.2815 42.6194 23.2657 42.7677 23.2506 42.9096C23.234 43.0661 23.2181 43.2147 23.1632 43.523C23.1133 43.8291 23.0672 43.9739 23.0201 44.1222C22.9755 44.2624 22.9299 44.4058 22.879 44.6914C22.8373 44.9438 22.8231 45.0892 22.8105 45.2189C22.7937 45.3913 22.7796 45.5359 22.707 45.8672C22.6447 46.1555 22.6813 46.3185 22.7171 46.4783C22.7543 46.6443 22.7907 46.8067 22.7145 47.1026C22.6397 47.3928 22.5986 47.5379 22.5575 47.683C22.5163 47.8281 22.4752 47.9732 22.4004 48.2635C22.3256 48.5537 22.2284 48.6839 22.1312 48.8142C22.034 48.9444 21.9367 49.0746 21.862 49.3649C21.8551 49.3887 21.8389 49.4141 21.8226 49.4396C21.8032 49.4698 21.7837 49.5003 21.7797 49.5286C21.7538 49.8225 21.7772 49.9749 21.8003 50.1255C21.824 50.2801 21.8474 50.4327 21.8171 50.7341C21.7912 51.0288 21.8239 51.1813 21.8563 51.3323C21.8893 51.4864 21.9221 51.639 21.8919 51.9397C21.8653 52.2419 21.7636 52.3811 21.6601 52.5228C21.5597 52.6602 21.4575 52.8 21.4207 53.0932C21.3955 53.3185 21.4049 53.4373 21.414 53.5519C21.4238 53.6758 21.4332 53.7948 21.3983 54.0383C21.3604 54.276 21.3763 54.397 21.3924 54.5197C21.4081 54.6389 21.424 54.7597 21.3908 54.9908C21.3571 55.2253 21.3123 55.3369 21.2674 55.4485C21.2225 55.5601 21.1777 55.6718 21.144 55.9062C21.1103 56.1369 21.0954 56.2541 21.0804 56.3713C21.0655 56.4885 21.0505 56.6057 21.0169 56.8364C20.972 57.1266 21.159 57.3573 21.3534 57.5806C21.5478 57.7964 21.7498 57.9155 22.0414 57.9155C22.0414 57.9155 22.0489 58.1164 22.0265 58.0941C22.3284 58.0904 22.4798 58.0608 22.6317 58.0311C22.7846 58.0012 22.9379 57.9713 23.2455 57.9676C23.5521 57.9638 23.7054 57.9657 23.8586 57.9676H23.8588C24.0121 57.9694 24.1654 57.9713 24.472 57.9676C24.7735 57.9639 24.9249 57.9583 25.0766 57.9528H25.0767H25.0767C25.2297 57.9471 25.383 57.9415 25.691 57.9378C25.9911 57.9378 26.1407 57.9584 26.2898 57.9789C26.4379 57.9993 26.5856 58.0197 26.8801 58.0197C27.1802 58.0197 27.3298 58.0346 27.4789 58.0496L27.4789 58.0496C27.6271 58.0644 27.7748 58.0792 28.0692 58.0792C28.3702 58.0792 28.5198 58.0792 28.6694 58.0782C28.8171 58.0773 28.9648 58.0754 29.2583 58.0717C29.5575 58.068 29.7052 58.0066 29.8529 57.9452C30.0006 57.8838 30.1483 57.8224 30.4474 57.8187C30.7466 57.815 30.8943 57.7871 31.042 57.7592C31.1897 57.7313 31.3374 57.7034 31.6365 57.6997C31.9287 57.696 32.08 57.7778 32.2298 57.8588C32.3829 57.9416 32.5344 58.0235 32.8331 58.0122C33.1216 58.001 33.2618 57.9114 33.4033 57.821C33.5442 57.7309 33.6863 57.6401 33.9774 57.6252C34.269 57.6104 34.4149 57.6345 34.5607 57.6587C34.7065 57.6829 34.8524 57.7071 35.144 57.6922C35.4501 57.6803 35.5956 57.7084 35.7512 57.7385C35.8884 57.7649 36.0334 57.7929 36.3032 57.7964C36.583 57.8 36.7303 57.7488 36.8722 57.6994C37.0262 57.6459 37.1738 57.5946 37.4774 57.6178C37.7722 57.6366 37.9142 57.6877 38.0579 57.7395C38.1985 57.7901 38.3406 57.8413 38.6291 57.8634C38.944 57.8835 39.0868 57.8992 39.2432 57.9165H39.2433L39.2433 57.9165C39.3766 57.9312 39.52 57.947 39.7883 57.9676C39.817 57.9711 39.8474 57.9987 39.8771 58.0256C39.9093 58.0547 39.9405 58.0831 39.9678 58.0792C40.2594 58.0531 40.4034 58.0308 40.5474 58.0085C40.6913 57.9862 40.8353 57.9638 41.127 57.9378C41.4186 57.9117 41.5588 57.8485 41.6991 57.7852C41.8393 57.722 41.9795 57.6587 42.2712 57.6327C42.5468 57.6113 42.6905 57.578 42.8293 57.5458C42.9806 57.5108 43.1262 57.477 43.4304 57.4615C43.7289 57.4463 43.8766 57.5227 44.0279 57.6009C44.1722 57.6755 44.3197 57.7517 44.6045 57.7517C44.8962 57.7517 45.042 57.7108 45.1879 57.6699C45.3337 57.629 45.4795 57.588 45.7712 57.588C46.0629 57.588 46.2087 57.6029 46.3545 57.6178C46.5004 57.6327 46.6462 57.6476 46.9379 57.6476C46.9614 57.6476 46.987 57.6353 47.0136 57.6225L47.0136 57.6225C47.0377 57.611 47.0625 57.599 47.0874 57.5955C47.3672 57.5515 47.5147 57.5598 47.661 57.5681C47.8119 57.5766 47.9617 57.5851 48.2541 57.5359C48.5395 57.488 48.6761 57.4163 48.8114 57.3453C48.9491 57.273 49.0854 57.2015 49.3759 57.1564C49.5015 57.1353 49.6001 57.1181 49.6834 57.1036L49.6838 57.1035L49.6842 57.1034C49.9823 57.0514 50.0853 57.0334 50.5351 56.9927C50.7691 56.9718 50.9105 56.9533 51.0335 56.9372L51.0336 56.9372L51.0336 56.9372C51.2172 56.9131 51.36 56.8944 51.7092 56.8811C52.0035 56.8736 52.1531 56.9382 52.3011 57.0022C52.4504 57.0666 52.5981 57.1304 52.8909 57.1192C53.1916 57.1077 53.3373 57.0863 53.4879 57.0642C53.6293 57.0434 53.775 57.022 54.0575 57.0076C54.3137 56.9963 54.437 56.9284 54.5613 56.86C54.6838 56.7926 54.8073 56.7247 55.0597 56.7099C55.3086 56.6953 55.4375 56.7093 55.5638 56.723C55.6956 56.7372 55.8246 56.7512 56.0843 56.7322C56.3463 56.7169 56.4713 56.6936 56.6005 56.6696C56.7221 56.647 56.8474 56.6237 57.0939 56.6057C57.3168 56.5927 57.442 56.5882 57.5552 56.5842H57.5553C57.7002 56.579 57.8254 56.5745 58.111 56.5536C58.3636 56.5388 58.4963 56.6067 58.6282 56.6742C58.7618 56.7425 58.8946 56.8105 59.1505 56.7918C59.4048 56.7732 59.53 56.7527 59.6553 56.7322C59.7806 56.7118 59.9058 56.6913 60.1601 56.6727C60.4144 56.6541 60.5378 56.6057 60.6612 56.5573C60.7846 56.509 60.908 56.4606 61.1623 56.442C61.6409 56.4122 61.8652 56.055 61.9251 55.5787C61.9662 55.2699 62.0242 55.1192 62.0821 54.9685C62.1401 54.8178 62.198 54.6671 62.2392 54.3583C62.2803 54.0495 62.2728 53.8913 62.2654 53.7332C62.2579 53.575 62.2504 53.4169 62.2915 53.1081C62.3156 52.9272 62.3333 52.7992 62.3479 52.6933C62.3833 52.4374 62.401 52.3095 62.4486 51.8727C62.475 51.6064 62.4927 51.4592 62.5087 51.3259C62.5289 51.1574 62.5465 51.0111 62.5757 50.6746C62.6019 50.3732 62.6636 50.2262 62.7253 50.0793C62.787 49.9323 62.8487 49.7853 62.8749 49.4839C62.8997 49.1976 62.9043 49.0473 62.9088 48.9038V48.9037C62.9136 48.7451 62.9182 48.5948 62.9496 48.2784C62.9792 47.9768 62.9595 47.8206 62.9401 47.667C62.9202 47.5098 62.9006 47.3554 62.9347 47.0505C62.9683 46.7491 63.0001 46.5984 63.0319 46.4477C63.0637 46.297 63.0955 46.1463 63.1291 45.8449C63.1628 45.5435 63.1647 45.3909 63.1665 45.2384C63.1684 45.0858 63.1703 44.9333 63.2039 44.6319C63.2039 44.6207 63.2394 44.6096 63.275 44.5984C63.3105 44.5872 63.346 44.5761 63.346 44.5649C63.3572 44.2635 63.303 44.111 63.2488 43.9584C63.1946 43.8058 63.1404 43.6533 63.1516 43.3519C63.1628 43.0505 63.1871 42.8998 63.2114 42.7491C63.2357 42.5984 63.26 42.4477 63.2712 42.1463C63.284 41.8036 63.3064 41.6582 63.333 41.4857V41.4856C63.3532 41.3547 63.3758 41.2082 63.3984 40.9482C63.4203 40.6955 63.4252 40.5474 63.4295 40.4162C63.4354 40.2345 63.4403 40.0852 63.4881 39.7352C63.5292 39.4338 63.6134 39.2924 63.6975 39.151C63.7816 39.0096 63.8658 38.8682 63.9069 38.5668C63.9488 38.2602 63.9113 38.1019 63.8732 37.941C63.8364 37.7855 63.7991 37.6277 63.8321 37.3315C63.8647 37.0436 63.8972 36.8967 63.9289 36.7536C63.9628 36.6007 63.9957 36.4521 64.0266 36.1408C64.052 35.8516 64.0492 35.7011 64.0464 35.5537V35.5537C64.0435 35.3977 64.0407 35.2452 64.0714 34.9352C64.1004 34.6433 64.1013 34.491 64.1022 34.3439C64.1031 34.1873 64.104 34.0367 64.1388 33.7297C64.1763 33.4274 64.257 33.286 64.3386 33.1433C64.4197 33.0014 64.5016 32.8581 64.5426 32.5539C64.5838 32.2481 64.5312 32.0862 64.4787 31.9249C64.4265 31.7643 64.3744 31.6044 64.4155 31.3036C64.4566 31.0022 64.5089 30.8553 64.5613 30.7083C64.6136 30.5613 64.666 30.4143 64.7071 30.1129C64.7131 30.0712 64.7324 30.027 64.7518 29.9823C64.7808 29.9157 64.8103 29.8479 64.7969 29.7855C64.7741 29.6497 64.7322 29.5885 64.6895 29.5262C64.648 29.4657 64.6058 29.4041 64.58 29.272C64.4902 28.7585 64.064 28.3865 63.5405 28.4311C63.2338 28.4571 63.0768 28.4385 62.9197 28.4199C62.7627 28.4013 62.6056 28.3827 62.299 28.4088C62.1267 28.4255 62.0033 28.4422 61.9015 28.4588C61.8106 28.4517 61.7374 28.4434 61.6641 28.4352C61.5149 28.4184 61.3653 28.4015 61.0649 28.3941C60.7798 28.387 60.6305 28.3562 60.4876 28.3268C60.3307 28.2944 60.1815 28.2637 59.8683 28.2675C59.5537 28.2713 59.3985 28.342 59.2411 28.4137C59.0881 28.4835 58.9329 28.5542 58.6269 28.5652C58.3165 28.5764 58.1595 28.5373 58.0024 28.4982C57.8454 28.4592 57.6883 28.4201 57.378 28.4313C57.0676 28.4424 56.9143 28.5075 56.761 28.5727C56.6077 28.6378 56.4543 28.7029 56.144 28.7141C56.1288 28.7178 56.1097 28.6523 56.0906 28.587C56.0723 28.5239 56.054 28.461 56.0393 28.461C55.7384 28.498 55.5889 28.5313 55.4394 28.5645C55.2879 28.5983 55.1364 28.6319 54.8277 28.6694C54.5211 28.7066 54.3697 28.7345 54.2182 28.7624C54.0668 28.7903 53.9153 28.8182 53.6087 28.8554C53.2891 28.8947 53.136 28.8946 52.9726 28.8945C52.8264 28.8944 52.6719 28.8943 52.3822 28.9224C52.0571 28.9544 51.9064 28.9477 51.7418 28.9405C51.6441 28.9362 51.5414 28.9317 51.3944 28.9349C51.333 28.9308 51.2643 28.9288 51.1857 28.9297C50.9922 28.932 50.8589 28.9604 50.7489 28.9989C50.6758 29.0152 50.6138 29.0334 50.5514 29.0516C50.4038 29.0948 50.2542 29.1385 49.9517 29.1606C49.7318 29.1766 49.5917 29.1964 49.4742 29.2156C49.4228 29.2119 49.3759 29.2077 49.3293 29.2035C49.1684 29.1891 49.0115 29.1751 48.6879 29.1827C48.384 29.19 48.2288 29.1723 48.0768 29.155C47.9183 29.1369 47.7632 29.1192 47.4464 29.1306C47.136 29.1418 46.9827 29.1623 46.8294 29.1827C46.6761 29.2032 46.5228 29.2237 46.2124 29.2348C45.9878 29.2429 45.8444 29.2344 45.7235 29.221C45.7004 29.2133 45.6778 29.2056 45.6552 29.1978C45.5037 29.1457 45.3523 29.0936 45.0457 29.0787C45.0232 29.0787 45.0027 29.1029 44.9821 29.1271C44.9679 29.1437 44.9538 29.1604 44.939 29.1691C44.8899 29.1716 44.8461 29.176 44.8065 29.1819C44.5654 29.1892 44.4265 29.1461 44.2866 29.1027C44.1289 29.0537 43.9701 29.0045 43.6621 29.0266C43.4588 29.0412 43.3244 29.0726 43.2139 29.1098C43.1694 29.1033 43.12 29.1 43.0639 29.1009C42.8283 29.1046 42.7106 29.1604 42.5928 29.2162C42.475 29.272 42.3572 29.3278 42.1216 29.3316C41.8994 29.335 41.7804 29.3208 41.6695 29.3076C41.5415 29.2924 41.4243 29.2784 41.1718 29.2944C40.9042 29.3121 40.7625 29.3027 40.6267 29.2938C40.4778 29.2839 40.3358 29.2746 40.0425 29.3018C39.7508 29.325 39.6128 29.3483 39.4686 29.3725C39.4122 29.382 39.3548 29.3917 39.287 29.4016C39.1467 29.3905 38.9922 29.3823 38.7187 29.3987C38.4151 29.4208 38.2655 29.5013 38.1165 29.5814L38.0882 29.5966C38.0147 29.6083 37.9284 29.6193 37.8214 29.6292C37.5354 29.6523 37.3992 29.6754 37.2569 29.6995C37.1974 29.7096 37.1368 29.7198 37.0636 29.7304C36.9535 29.7228 36.8655 29.7011 36.7779 29.6796C36.614 29.6393 36.4512 29.5992 36.1461 29.6517C35.8432 29.7038 35.6992 29.7726 35.5553 29.8415C35.4456 29.8939 35.3359 29.9464 35.156 29.9914L35.0506 30.0013C34.9122 30.0143 34.7739 30.0274 34.4934 30.0534C34.2167 30.0795 34.0727 30.046 33.9288 30.0125C33.7848 29.979 33.6408 29.9455 33.3641 29.9716C33.0811 29.9941 32.9466 30.0545 32.8107 30.1155C32.6773 30.1755 32.5426 30.236 32.2648 30.2618C31.9837 30.2879 31.8397 30.2579 31.6963 30.2281C31.5536 30.1984 31.4115 30.1688 31.1355 30.1948C30.8359 30.219 30.6985 30.2366 30.5476 30.256C30.4199 30.2724 30.2824 30.29 30.0286 30.3139C30.0086 30.3139 29.9929 30.3267 29.9769 30.3397C29.963 30.351 29.9488 30.3625 29.9314 30.366C29.636 30.4255 29.479 30.4032 29.3219 30.3809C29.1649 30.3585 29.0078 30.3362 28.7124 30.3957C28.4245 30.4545 28.2805 30.4933 28.1374 30.5319C27.9907 30.5715 27.8449 30.6108 27.5457 30.6711C27.2503 30.7306 27.1026 30.7529 26.9549 30.7753L26.9549 30.7753C26.824 30.7951 26.6931 30.8148 26.4594 30.8605ZM28.7636 32.4367C28.7421 32.4792 28.732 32.5451 28.7347 32.6433C28.7488 33.142 28.9095 33.2262 29.1655 33.3603C29.3182 33.4403 29.5048 33.538 29.7144 33.7521C29.9108 33.9545 30.0085 34.0685 30.1008 34.1763L30.1009 34.1763L30.1009 34.1763C30.2055 34.2984 30.3032 34.4124 30.5296 34.6377C30.9558 35.0618 30.9559 35.0619 31.3893 35.4857L31.3894 35.4858L31.3894 35.4858L31.3896 35.4861C31.6146 35.7099 31.7021 35.8343 31.795 35.9664L31.795 35.9664C31.8782 36.0846 31.9657 36.2089 32.1599 36.4163C32.3567 36.6224 32.4738 36.7239 32.5833 36.8187L32.5833 36.8187C32.711 36.9294 32.8284 37.0311 33.0499 37.2796C33.2556 37.5102 33.3434 37.6405 33.4313 37.7707L33.4313 37.7707L33.4313 37.7707C33.5192 37.9009 33.6071 38.0312 33.8127 38.2619C34.0213 38.4958 34.1721 38.5671 34.3258 38.6398C34.4751 38.7104 34.6271 38.7822 34.8373 39.0061C35.0328 39.2113 35.1108 39.3382 35.1869 39.4617C35.2679 39.5934 35.3466 39.7212 35.5627 39.9363C35.7721 40.1446 35.8918 40.2321 36.0115 40.3195C36.1311 40.407 36.2508 40.4944 36.4602 40.7028C36.6561 40.8977 36.7407 41.0194 36.8205 41.134C36.9112 41.2645 36.9956 41.3859 37.2305 41.5958C37.3716 41.7196 37.4668 41.8053 37.546 41.8766L37.546 41.8766C37.7144 42.0281 37.8102 42.1143 38.1204 42.3623C38.3721 42.5602 38.4652 42.6727 38.5682 42.7972C38.655 42.902 38.7488 43.0155 38.9506 43.1958C39.2172 43.4021 39.3521 43.475 39.5071 43.5588C39.6259 43.623 39.7566 43.6936 39.9677 43.8358C40.4442 44.1565 40.4808 44.1767 40.9265 44.4229L41.0221 44.4758C41.2914 44.6246 41.4391 44.6767 41.5868 44.7288C41.7345 44.7809 41.8822 44.833 42.1514 44.9818C42.3694 45.1023 42.4857 45.235 42.5875 45.3513C42.7373 45.5222 42.8559 45.6576 43.2209 45.6665C43.5283 45.6748 43.6104 45.511 43.7077 45.317C43.7831 45.1665 43.8676 44.9979 44.0734 44.8776C44.309 44.7399 44.4548 44.7176 44.6007 44.6953C44.7465 44.673 44.8923 44.6506 45.1279 44.513C45.333 44.3931 45.4659 44.3466 45.5856 44.3046C45.741 44.2502 45.8744 44.2035 46.1151 44.0144C46.388 43.798 46.4785 43.6711 46.5849 43.5221C46.6652 43.4097 46.7545 43.2846 46.9378 43.099C47.15 42.8842 47.2287 42.7486 47.3078 42.6125C47.3876 42.4751 47.4678 42.3372 47.6856 42.1167C47.8906 41.9092 47.9918 41.7945 48.0899 41.6835C48.1958 41.5636 48.298 41.4478 48.5232 41.2237C48.5342 41.2127 48.5705 41.2233 48.6081 41.2343C48.6471 41.2456 48.6875 41.2574 48.7027 41.246C48.9485 41.0435 49.0838 40.9646 49.2232 40.8834C49.3552 40.8064 49.4908 40.7273 49.7273 40.5391C49.9666 40.3419 50.0807 40.2358 50.1947 40.1298C50.3088 40.0237 50.4228 39.9177 50.6621 39.7205C50.918 39.5096 51.0071 39.3796 51.1033 39.2394C51.187 39.1174 51.2759 38.9877 51.4848 38.7902C51.7514 38.5338 51.8411 38.4192 51.9578 38.2701L51.9578 38.2701C52.0376 38.1683 52.13 38.0503 52.2999 37.86C52.5076 37.6276 52.6361 37.5324 52.7631 37.4383C52.8923 37.3426 53.0199 37.2481 53.2273 37.0117C53.4351 36.7791 53.5655 36.6857 53.6945 36.5934C53.8255 36.4996 53.9549 36.407 54.1621 36.1707C54.1863 36.1467 54.1977 36.1131 54.2089 36.0803C54.2219 36.042 54.2346 36.0047 54.2668 35.9847C54.5211 35.8024 54.6669 35.7372 54.8128 35.6721C54.9586 35.607 55.1044 35.5419 55.3587 35.3596C55.613 35.1772 55.6915 35.021 55.77 34.8647C55.8486 34.7084 55.9271 34.5521 56.1814 34.3698C56.4275 34.1933 56.607 34.1702 56.781 34.1479C56.9666 34.124 57.1459 34.1009 57.3929 33.8935C57.6508 33.677 57.7437 33.5469 57.8447 33.4055C57.9311 33.2844 58.0235 33.155 58.2305 32.9559C58.4558 32.7354 58.5284 32.5863 58.6007 32.4378C58.6723 32.2905 58.7437 32.1438 58.9634 31.9289C59.2015 31.6959 59.3343 31.6096 59.4758 31.5177C59.601 31.4363 59.733 31.3506 59.9506 31.155C60.1059 31.0123 60.2863 30.9587 60.4432 30.912C60.5838 30.8702 60.7055 30.834 60.7732 30.7443C60.7388 30.7424 60.7058 30.7402 60.6727 30.738C60.5056 30.7269 60.3392 30.7158 60.0105 30.7455C59.9956 30.7455 59.9806 30.7139 59.9657 30.6822C59.9507 30.6506 59.9358 30.619 59.9208 30.619C59.6142 30.6153 59.4609 30.686 59.3075 30.7567C59.1542 30.8274 59.0009 30.8981 58.6943 30.8943C58.3901 30.8906 58.2368 30.8302 58.0846 30.7702C57.9301 30.7092 57.7768 30.6488 57.4678 30.6488C57.0877 30.6441 56.9403 30.6538 56.7372 30.6672C56.6126 30.6754 56.467 30.6849 56.2338 30.6934C55.9041 30.7054 55.7539 30.7389 55.5901 30.7754C55.4492 30.8068 55.2984 30.8405 55.0148 30.8646C54.7082 30.8906 54.553 30.8832 54.3978 30.8757C54.3267 30.8723 54.2556 30.8689 54.1699 30.8687C54.0755 30.9046 53.9605 30.9349 53.8032 30.954C53.5833 30.9807 53.4413 30.9902 53.3213 30.9941C53.2728 31.0146 53.2286 31.0364 53.1847 31.058C53.0318 31.1331 52.8825 31.2066 52.5693 31.2218C52.3711 31.2312 52.2537 31.1879 52.1491 31.1346L52.1092 31.1524C51.9939 31.2041 51.88 31.2552 51.6418 31.274C51.4062 31.2926 51.2847 31.235 51.1632 31.1773C51.0417 31.1196 50.9201 31.0619 50.6846 31.0805C50.449 31.0991 50.3293 31.0917 50.2097 31.0843C50.09 31.0768 49.9704 31.0694 49.7348 31.088C49.5007 31.1065 49.3884 31.1856 49.2769 31.2642C49.164 31.3438 49.0519 31.4228 48.8149 31.4377C48.7971 31.4377 48.7758 31.4174 48.7536 31.3961C48.7292 31.3729 48.7037 31.3484 48.6803 31.3484C48.3737 31.3336 48.2204 31.3243 48.0671 31.315L48.067 31.315L48.067 31.315L48.067 31.315C47.9137 31.3057 47.7604 31.2964 47.4538 31.2815C47.1472 31.2666 46.9938 31.2424 46.8405 31.2182C46.6872 31.194 46.5339 31.1698 46.2273 31.155C45.9025 31.1392 45.7497 31.1756 45.5867 31.2145C45.442 31.249 45.2892 31.2854 45.0008 31.2889C44.7105 31.2924 44.5577 31.2476 44.4121 31.2049C44.3573 31.1889 44.3035 31.1731 44.2439 31.1603C44.1312 31.1537 43.996 31.15 43.7968 31.1548C43.4827 31.1622 43.3275 31.2013 43.1724 31.2404C43.0217 31.2783 42.871 31.3163 42.5748 31.3252L42.5627 31.3261C42.4561 31.3339 42.3678 31.3351 42.2914 31.3321C41.9167 31.3413 41.8319 31.3453 41.3419 31.3686L41.3419 31.3686L41.299 31.3706C41.089 31.3819 40.9577 31.3632 40.8453 31.3385C40.804 31.353 40.7656 31.368 40.7272 31.3831C40.5762 31.4423 40.4267 31.5008 40.1172 31.5196C39.8106 31.5382 39.6554 31.5364 39.5002 31.5345C39.3451 31.5326 39.1899 31.5308 38.8833 31.5494C38.369 31.5806 38.286 31.5908 37.911 31.6372C37.8388 31.6462 37.7558 31.6564 37.6568 31.6684C37.3326 31.7038 37.1882 31.7663 37.0346 31.8326C36.8976 31.8918 36.7533 31.9542 36.4676 32.0033C36.1648 32.0554 36.0096 32.0647 35.8544 32.074C35.6992 32.0833 35.544 32.0926 35.2412 32.1447C34.9314 32.198 34.7761 32.2026 34.6174 32.2074C34.4656 32.2119 34.3107 32.2165 34.0147 32.2638C34.0013 32.2671 33.9864 32.2779 33.9713 32.2888L33.9713 32.2888C33.9528 32.3023 33.934 32.3159 33.9174 32.3159C33.6482 32.3345 33.5155 32.3605 33.3827 32.3866C33.25 32.4126 33.1172 32.4387 32.848 32.4573C32.5788 32.4759 32.4404 32.4201 32.302 32.3643C32.1637 32.3084 32.0253 32.2526 31.7561 32.2712C31.4869 32.2898 31.3579 32.3605 31.2289 32.4312C31.0999 32.5019 30.9708 32.5726 30.7016 32.5912C30.4317 32.6099 30.2933 32.5762 30.1555 32.5426C30.0184 32.5092 29.882 32.4759 29.6172 32.4945C29.4225 32.5081 29.2499 32.4597 29.1101 32.4194C29.0049 32.4324 28.9278 32.4336 28.8507 32.4348C28.8222 32.4352 28.7936 32.4357 28.7636 32.4367Z" fill="#023866"/>
</svg>
